<?xml version="1.0" encoding="iso-8859-1"?>
<!-- Generator: Adobe Illustrator 21.1.0, SVG Export Plug-In . SVG Version: 6.00 Build 0)  -->
<svg version="1.1" id="Layer_1" xmlns="http://www.w3.org/2000/svg" xmlns:xlink="http://www.w3.org/1999/xlink" x="0px" y="0px"
	 viewBox="0 0 72.434 72.44" style="enable-background:new 0 0 72.434 72.44;" xml:space="preserve">
<path style="fill:#231F20;" d="M36.22,0C16.212,0,0,16.216,0,36.227c0,19.999,16.212,36.214,36.22,36.214
	c20.011,0,36.214-16.215,36.214-36.214C72.434,16.215,56.231,0,36.22,0z M52.058,46.82c1.379,1.424,0.953,4.078-0.959,5.932
	c-1.911,1.854-4.577,2.209-5.959,0.785l-9.027-9.295l-9.298,9.027c-1.421,1.379-4.075,0.947-5.929-0.961s-2.206-4.574-0.785-5.956
	l9.298-9.027l-9.027-9.298c-1.379-1.421-0.946-4.078,0.962-5.932c1.905-1.851,4.577-2.204,5.953-0.785l9.027,9.297l9.301-9.023
	c1.424-1.382,4.078-0.95,5.929,0.958c1.857,1.908,2.206,4.577,0.785,5.959l-9.295,9.024L52.058,46.82z"/>
</svg>
