<svg width="31" height="24" viewBox="0 0 31 24" fill="none" xmlns="http://www.w3.org/2000/svg">
<g clip-path="url(#clip0_818_899)">
<path d="M16.1396 10.0604C16.1396 10.978 15.5788 11.5061 14.5908 11.5061H13.293V8.6146H14.5961C15.5788 8.6146 16.1396 9.13742 16.1396 10.0604ZM18.6764 13.4C18.6764 13.8428 19.061 14.1309 19.6645 14.1309C20.4335 14.1309 21.0103 13.6455 21.0103 12.9626V12.5518L19.7552 12.6318C19.0449 12.6798 18.6764 12.9412 18.6764 13.4ZM30.7624 2.62346V21.4025C30.7624 22.8162 29.6142 23.9632 28.1989 23.9632H2.56354C1.14825 23.9632 0 22.8162 0 21.4025V2.62346C0 1.2097 1.14825 0.0626831 2.56354 0.0626831H28.1989C29.6142 0.0626831 30.7624 1.2097 30.7624 2.62346ZM6.82541 8.92936C7.27403 8.96671 7.72265 8.70529 8.00571 8.37453C8.28343 8.03309 8.46501 7.57429 8.41694 7.11015C8.02173 7.12615 7.53039 7.37156 7.24733 7.71299C6.99098 8.00642 6.77201 8.48123 6.82541 8.92936ZM10.0619 12.9039C10.0512 12.8932 9.0151 12.4984 9.00442 11.3034C8.99374 10.3058 9.82155 9.82563 9.85893 9.79896C9.38895 9.10541 8.66261 9.03073 8.4116 9.01472C7.76004 8.97738 7.2046 9.38283 6.89484 9.38283C6.57974 9.38283 6.10976 9.03073 5.59705 9.0414C4.92947 9.05206 4.3046 9.43085 3.96814 10.0337C3.26851 11.2394 3.78656 13.0213 4.46483 14.0029C4.79595 14.4884 5.1965 15.0219 5.71989 15.0005C6.21657 14.9792 6.41418 14.6804 7.01234 14.6804C7.61584 14.6804 7.78674 15.0005 8.31013 14.9952C8.85488 14.9845 9.19134 14.5097 9.52781 14.0242C9.89632 13.4694 10.0512 12.9359 10.0619 12.9039ZM17.2932 10.055C17.2932 8.63594 16.3052 7.66498 14.8952 7.66498H12.1608V14.9418H13.293V12.4558H14.8578C16.2891 12.4558 17.2932 11.4741 17.2932 10.055ZM22.0998 11.3194C22.0998 10.2684 21.256 9.59089 19.9635 9.59089C18.7619 9.59089 17.8753 10.2791 17.8433 11.2181H18.8634C18.9488 10.7699 19.3654 10.4765 19.9315 10.4765C20.6258 10.4765 21.0103 10.7966 21.0103 11.3941V11.7942L19.6004 11.8796C18.2866 11.9596 17.5762 12.4984 17.5762 13.4321C17.5762 14.3763 18.3079 15.0005 19.36 15.0005C20.0704 15.0005 20.7273 14.6431 21.0263 14.0722H21.0477V14.9472H22.0945V11.3194H22.0998ZM27.558 9.66025H26.4098L25.0799 13.9602H25.0586L23.7287 9.66025H22.5378L24.4551 14.9578L24.3536 15.2779C24.1827 15.8221 23.8996 16.0355 23.3976 16.0355C23.3068 16.0355 23.1359 16.0248 23.0665 16.0195V16.8944C23.1306 16.9158 23.4136 16.9211 23.4991 16.9211C24.6046 16.9211 25.1227 16.4996 25.5766 15.2246L27.558 9.66025Z" fill="#222222"/>
</g>
<defs>
<clipPath id="clip0_818_899">
<rect width="30.7624" height="24" fill="white"/>
</clipPath>
</defs>
</svg>
