<svg width="56" height="59" viewBox="0 0 56 59" fill="none" xmlns="http://www.w3.org/2000/svg">
<path d="M0 31.7429C0 24.9904 5.25815 19.4476 11.8473 19.1363L12.432 19.1226H25.844V36.2156C25.844 37.4406 26.796 38.4092 28 38.4092C29.078 38.4092 29.9913 37.5953 30.136 36.5161L30.156 36.2156V19.1226H43.54C50.204 19.1226 55.679 24.4724 55.9864 31.2026L56 31.7999V45.6737C56 52.454 50.7419 57.9975 44.1527 58.3088L43.568 58.3226H12.46C5.7688 58.3226 0.319474 52.9458 0.0135464 46.2402L0 45.6452V31.7429ZM18.3406 12.01C17.5515 11.2464 17.4797 10.0431 18.1043 9.19948L18.3126 8.958L26.4606 0.782001C26.8806 0.362 27.4126 0.138 28.0006 0.138C28.4486 0.138 28.8966 0.28136 29.2585 0.553745L29.5126 0.782001L37.6606 8.958C38.0806 9.378 38.3046 9.938 38.3046 10.47C38.3046 11.03 38.0806 11.59 37.6606 12.01C36.8969 12.7736 35.6936 12.8431 34.85 12.2183L34.6086 12.01L30.1566 7.53V19.122H25.8446V7.53L21.3926 12.01C20.5526 12.85 19.1806 12.85 18.3406 12.01Z" fill="#800080"/>
</svg>
