<svg width="17" height="17" viewBox="0 0 17 17" fill="none" xmlns="http://www.w3.org/2000/svg">
<path d="M8.48527 0.716309C10.4967 0.716309 12.1269 2.29626 12.1513 4.2475L12.3216 4.2475C14.5601 4.2475 16.3769 6.02495 16.3769 8.20528L16.3769 12.566C16.3769 14.7463 14.5601 16.5158 12.3216 16.5158L4.63271 16.5158C2.39418 16.5158 0.577393 14.7463 0.577393 12.566L0.577393 8.20528C0.577393 6.02495 2.39418 4.2475 4.63271 4.2475L4.80304 4.2475C4.81926 3.29953 5.20046 2.41476 5.88986 1.75118C6.58738 1.0797 7.47955 0.740008 8.48527 0.716309ZM11.5592 5.18757C11.2267 5.18757 10.9509 5.45617 10.9509 5.78006L10.9509 6.69643C10.9509 7.02032 11.2267 7.28891 11.5592 7.28891C11.8998 7.28891 12.1675 7.02032 12.1675 6.69643L12.1675 5.78006C12.1675 5.45617 11.8998 5.18757 11.5592 5.18757ZM5.32212 5.18757C4.98958 5.18757 4.71382 5.45617 4.71382 5.78006L4.71382 6.69643C4.71382 7.02032 4.98958 7.28891 5.32212 7.28891C5.66276 7.28891 5.93041 7.02032 5.93041 6.69643L5.93041 5.78006C5.93041 5.45617 5.66276 5.18757 5.32212 5.18757ZM8.48527 1.90127C7.86075 1.90127 7.2119 2.14617 6.74148 2.59645C6.28728 3.03884 6.03585 3.62342 6.01963 4.2475L10.9347 4.2475C10.9103 2.95194 9.82352 1.90127 8.48527 1.90127Z" fill="#800080"/>
</svg>
