<svg width="20" height="20" viewBox="0 0 20 20" fill="none" xmlns="http://www.w3.org/2000/svg">
<path fill-rule="evenodd" clip-rule="evenodd" d="M9.75386 -0.000305176C12.2282 -0.000305176 14.2456 2.00256 14.2726 4.47358L14.4918 4.47459C17.2538 4.47459 19.4998 6.71959 19.4998 9.47959V14.9956C19.4998 17.7546 17.2538 19.9996 14.4918 19.9996H5.00776C2.24676 19.9996 -0.000244141 17.7546 -0.000244141 14.9956V9.47959C-0.000244141 6.71959 2.24676 4.47459 5.00776 4.47459L5.21176 4.47369L5.2181 4.27922C5.2809 3.14476 5.74812 2.10403 6.54986 1.31069C7.40786 0.459695 8.55986 0.0346948 9.75386 -0.000305176ZM14.4918 5.97459L14.2728 5.97369L14.2729 7.55569C14.2729 7.96969 13.9369 8.30569 13.5229 8.30569C13.1089 8.30569 12.7729 7.96969 12.7729 7.55569L12.7728 5.97369H6.71076L6.71086 7.55569C6.71086 7.96969 6.37486 8.30569 5.96086 8.30569C5.54686 8.30569 5.21086 7.96969 5.21086 7.55569L5.21076 5.97369L5.00776 5.97459C3.07376 5.97459 1.49976 7.54659 1.49976 9.47959V14.9956C1.49976 16.9276 3.07376 18.4996 5.00776 18.4996H14.4918C16.4258 18.4996 17.9998 16.9276 17.9998 14.9956V9.47959C17.9998 7.54659 16.4258 5.97459 14.4918 5.97459ZM9.75086 1.49969C8.93986 1.52769 8.17986 1.80769 7.60586 2.37569C7.04019 2.93644 6.72314 3.67976 6.71119 4.4736L12.7708 4.47369L12.7677 4.34632C12.6757 2.7615 11.3583 1.49969 9.75086 1.49969Z" fill="#748B9B"/>
</svg>
