<svg width="27" height="24" viewBox="0 0 27 24" fill="none" xmlns="http://www.w3.org/2000/svg">
<path d="M24 1.5C25.6547 1.5 27 2.84297 27 4.5V6H0V4.5C0 2.84297 1.34297 1.5 3 1.5H24ZM27 19.5C27 21.1547 25.6547 22.5 24 22.5H3C1.34297 22.5 0 21.1547 0 19.5V10.5H27V19.5ZM5.25 16.5C4.8375 16.5 4.5 16.8375 4.5 17.25C4.5 17.6625 4.8375 18 5.25 18H8.25C8.6625 18 9 17.6625 9 17.25C9 16.8375 8.6625 16.5 8.25 16.5H5.25ZM11.25 18H17.25C17.6625 18 18 17.6625 18 17.25C18 16.8375 17.6625 16.5 17.25 16.5H11.25C10.8375 16.5 10.5 16.8375 10.5 17.25C10.5 17.6625 10.8375 18 11.25 18Z" fill="#E56C44"/>
</svg>
