<svg width="40" height="40" viewBox="0 0 40 40" fill="none" xmlns="http://www.w3.org/2000/svg">
<circle opacity="0.1" cx="20" cy="20" r="20" fill="#800080"/>
<path fill-rule="evenodd" clip-rule="evenodd" d="M24.0421 21.1924C23.5704 21.6591 23.189 22.2113 22.9177 22.8206C22.6573 23.4337 22.5259 24.0953 22.5319 24.763V27.1014C22.531 27.4746 22.4223 27.8393 22.2191 28.1503C22.0159 28.4613 21.7272 28.7049 21.3889 28.8509C21.1572 28.9508 20.9078 29.0015 20.6561 28.9999H18.3441C18.0976 29.002 17.8533 28.9541 17.6254 28.859C17.3974 28.7638 17.1905 28.6234 17.0168 28.446C16.6663 28.089 16.4696 27.6054 16.4697 27.1014V24.763C16.4697 24.0629 16.3373 23.4169 16.0752 22.8206C15.8093 22.2101 15.43 21.6573 14.9581 21.1924C14.3495 20.5911 13.8582 19.8786 13.5098 19.0922C13.1666 18.2998 12.9929 17.4425 13.0002 16.5769C12.9961 15.4101 13.3025 14.2639 13.887 13.2593C14.1706 12.7682 14.5089 12.3239 14.902 11.9234C15.2951 11.5271 15.7357 11.1824 16.2134 10.8974C16.7 10.611 17.2212 10.3888 17.774 10.2339C18.3367 10.0764 18.9179 9.99774 19.5015 10C20.6531 9.99657 21.7845 10.3064 22.7781 10.8974C23.745 11.4658 24.5497 12.2797 25.1132 13.2593C25.6973 14.2641 26.0037 15.4102 26 16.5769C26 17.4787 25.8315 18.3176 25.4918 19.0922C25.1434 19.8785 24.6521 20.5911 24.0435 21.1924H24.0421ZM21.0952 23.8846H17.9079V27.1014C17.9079 27.2198 17.9482 27.3206 18.0374 27.4113C18.0769 27.4534 18.1245 27.4868 18.1773 27.5094C18.23 27.532 18.2868 27.5434 18.3441 27.5428H20.6561C20.7134 27.5435 20.7702 27.5321 20.8229 27.5095C20.8757 27.4869 20.9233 27.4534 20.9627 27.4113C21.0043 27.3715 21.0373 27.3235 21.0596 27.2702C21.0819 27.2168 21.093 27.1593 21.0923 27.1014V23.8846H21.0952Z" fill="#800080"/>
</svg>
