<?xml version="1.0" encoding="utf-8"?>
<!-- Svg Vector Icons : http://www.onlinewebfonts.com/icon -->
<!DOCTYPE svg PUBLIC "-//W3C//DTD SVG 1.1//EN" "http://www.w3.org/Graphics/SVG/1.1/DTD/svg11.dtd">
<svg version="1.1" xmlns="http://www.w3.org/2000/svg" xmlns:xlink="http://www.w3.org/1999/xlink" x="0px" y="0px" viewBox="0 0 1000 1000" enable-background="new 0 0 1000 1000" xml:space="preserve">
<metadata> Svg Vector Icons : http://www.onlinewebfonts.com/icon </metadata>
<g><path d="M955.9,868.5H844.6v106.1c0,8.4-7.2,15.2-16,15.2h-41.7c-8.8,0-16-6.9-16-15.2V868.5H659.6c-8.9,0-16-6.8-16-15.3v-39.7c0-8.5,7.2-15.3,16-15.3h111.3V692.1c0-8.4,7.2-15.3,16-15.3h41.7c8.9,0,16,6.9,16,15.3v106.1h111.3c8.9,0,16,6.9,16,15.3v39.7C971.9,861.7,964.8,868.5,955.9,868.5z M606.6,550.2c40.8,12.7,79.1,31,113.8,54c7.8,5.2,12.9,13.8,12.8,23.7c0,15.7-13.1,28.5-29.1,28.5c-6.4,0-12.3-2.1-17.1-5.6l-0.1,0.1c-61.5-40.5-135.5-64.2-215.3-64.2c-212.8,0-385.3,168.6-385.3,376.5c-1,14.8-13.8,26.6-29.2,26.6c-15.5,0-28-11.8-29-26.6c-0.1,0-0.1-2.3-0.1-2.5c1.1-192.4,130.5-355.1,308.8-410.6c-93.9-47.6-158-143.5-158-254C178.8,138.1,309.9,10,471.7,10c161.8,0,293,128.1,293,286.2C764.7,406.7,700.5,502.6,606.6,550.2z M471.7,67.2c-129.4,0-234.4,102.6-234.4,229c0,126.5,104.9,229,234.4,229c129.4,0,234.4-102.5,234.4-229C706.1,169.7,601.2,67.2,471.7,67.2z"/></g>
</svg>