<svg width="40" height="40" viewBox="0 0 40 40" fill="none" xmlns="http://www.w3.org/2000/svg">
<circle opacity="0.1" cx="20" cy="20" r="20" fill="#800080"/>
<path d="M23.6982 12C24.838 12 25.9345 12.4417 26.7411 13.2342C27.5486 14.025 28 15.0917 28 16.2083V22.7917C28 25.1167 26.0705 27 23.6982 27H15.301C12.9287 27 11 25.1167 11 22.7917V16.2083C11 13.8833 12.9201 12 15.301 12H23.6982ZM24.6595 16.3333C24.481 16.3242 24.311 16.3833 24.1827 16.5L20.35 19.5C19.857 19.9008 19.1507 19.9008 18.65 19.5L14.825 16.5C14.5607 16.3083 14.1952 16.3333 13.975 16.5583C13.7455 16.7833 13.72 17.1417 13.9146 17.3917L14.026 17.5L17.8935 20.4583C18.3695 20.825 18.9467 21.025 19.551 21.025C20.1537 21.025 20.741 20.825 21.2162 20.4583L25.0505 17.45L25.1185 17.3833C25.3217 17.1417 25.3217 16.7917 25.1092 16.55C24.991 16.4258 24.8287 16.35 24.6595 16.3333Z" fill="#800080"/>
</svg>
