<svg width="16" height="17" viewBox="0 0 16 17" fill="none" xmlns="http://www.w3.org/2000/svg">
<path d="M5.93248 15.5229L5.93248 13.1073C5.93248 12.4907 6.43601 11.9909 7.05714 11.9909L9.32767 11.9909C9.62594 11.9909 9.912 12.1085 10.1229 12.3179C10.3338 12.5273 10.4523 12.8112 10.4523 13.1073L10.4523 15.5229C10.4504 15.7792 10.5517 16.0257 10.7336 16.2077C10.9156 16.3896 11.1631 16.4919 11.4214 16.4919L12.9704 16.4919C13.6939 16.4938 14.3884 16.2098 14.9006 15.7026C15.4128 15.1954 15.7007 14.5067 15.7007 13.7885L15.7007 6.90702C15.7007 6.32686 15.4417 5.77655 14.9934 5.40433L9.72377 1.2263C8.80711 0.493752 7.49374 0.517405 6.60444 1.28248L1.45508 5.40433C0.985618 5.76557 0.705028 6.31752 0.691162 6.90702L0.691162 13.7815C0.691162 15.2784 1.91356 16.4919 3.42146 16.4919L4.93514 16.4919C5.47149 16.4919 5.90737 16.0623 5.91126 15.5299L5.93248 15.5229Z" fill="#800080"/>
</svg>
