<svg width="16" height="17" viewBox="0 0 16 17" fill="none" xmlns="http://www.w3.org/2000/svg">
<path fill-rule="evenodd" clip-rule="evenodd" d="M9.5132 11.2158C10.3947 11.2158 11.1123 11.9307 11.1123 12.8094L11.1123 15.0692C11.1123 15.2581 11.2631 15.4094 11.4564 15.4138L12.8519 15.4138C13.9516 15.4138 14.8456 14.5278 14.8456 13.439L14.8456 7.02962C14.8405 6.65493 14.6626 6.30228 14.3573 6.06792L9.53004 2.20496C8.88207 1.68995 7.97564 1.68995 7.32547 2.20643L2.5312 6.06645C2.21417 6.30816 2.03625 6.66081 2.03259 7.04211L2.03259 13.439C2.03259 14.5278 2.92657 15.4138 4.02629 15.4138L5.43499 15.4138C5.63341 15.4138 5.79449 15.2559 5.79449 15.0619C5.79449 15.0193 5.79962 14.9767 5.8084 14.9363L5.8084 12.8094C5.8084 11.9358 6.52154 11.2217 7.39649 11.2158L9.5132 11.2158ZM12.8519 16.5158L11.4432 16.5158C10.6364 16.4967 10.014 15.8612 10.014 15.0692L10.014 12.8094C10.014 12.5383 9.78923 12.3179 9.5132 12.3179L7.40015 12.3179C7.12998 12.3193 6.90666 12.5405 6.90666 12.8094L6.90666 15.0619C6.90666 15.117 6.89934 15.1699 6.88397 15.2199C6.80489 15.9472 6.18547 16.5158 5.43499 16.5158L4.02629 16.5158C2.32106 16.5158 0.934326 15.1354 0.934326 13.439L0.934326 7.03696C0.941648 6.30669 1.27698 5.63813 1.85613 5.19805L6.64088 1.34465C7.69448 0.507108 9.16249 0.507108 10.2139 1.34318L15.0331 5.20026C15.599 5.63299 15.9344 6.30008 15.9439 7.02154L15.9439 13.439C15.9439 15.1354 14.5571 16.5158 12.8519 16.5158Z" fill="#748B9B"/>
</svg>
