<svg width="24" height="24" viewBox="0 0 24 24" fill="none" xmlns="http://www.w3.org/2000/svg">
<path d="M0.97725 2.60925V21.3915H12.387C19.2773 21.3915 23.0272 18.1845 23.0272 11.9775C23.0272 5.6025 18.9615 2.60925 12.387 2.60925H0.97725ZM12.387 1.63725C22.4918 1.63725 24 8.1135 24 11.9775C24 18.6765 19.875 22.3673 12.387 22.3673H0V1.63725H12.387ZM2.508 13.3553H6.15975V19.8593H2.508V13.3553ZM6.60225 10.0823C6.60225 10.3804 6.54353 10.6756 6.42944 10.951C6.31535 11.2265 6.14812 11.4768 5.93731 11.6876C5.7265 11.8984 5.47623 12.0656 5.20079 12.1797C4.92535 12.2938 4.63013 12.3525 4.332 12.3525C4.03387 12.3525 3.73865 12.2938 3.46321 12.1797C3.18777 12.0656 2.9375 11.8984 2.72669 11.6876C2.51588 11.4768 2.34865 11.2265 2.23456 10.951C2.12047 10.6756 2.06175 10.3804 2.06175 10.0823C2.06175 7.05525 6.6015 7.05525 6.6015 10.0823H6.60225ZM7.99575 9.02325V11.145H8.6475C9.0975 11.145 9.51525 11.016 9.51525 10.0658C9.51525 9.14475 9.05025 9.0225 8.6475 9.0225L7.99575 9.02325ZM18.8483 7.97325H19.902V11.145H21.4613C21.0315 5.38725 16.5045 4.14525 12.387 4.14525H8.00025V7.97325H8.64825C9.8325 7.97325 10.5705 8.77725 10.5705 10.0665C10.5705 11.4023 9.85275 12.1958 8.64825 12.1958H8.00025V19.8638H12.387C19.0778 19.8638 21.4057 16.755 21.4882 12.1958H18.852V7.9695L18.8483 7.97325ZM15.918 10.3283H16.68L16.3283 9.1335H16.266L15.918 10.3283ZM14.2733 12.1988L15.5513 7.9725H17.0475L18.3202 12.1988H17.2275L16.9845 11.379H15.6097L15.372 12.1988H14.2733ZM13.77 11.145V12.195H11.1683V7.97325H13.6882V9.02325H12.219V9.516H13.605V10.566H12.219V11.145H13.77Z" fill="black"/>
<path d="M7.99573 9.02325V11.145H8.64748C9.09748 11.145 9.51523 11.016 9.51523 10.0657C9.51523 9.14475 9.05023 9.0225 8.64748 9.0225L7.99573 9.02325ZM18.8482 7.97325H19.902V11.145H21.4612C21.0315 5.38725 16.5045 4.14525 12.387 4.14525H8.00023V7.97325H8.64823C9.83248 7.97325 10.5705 8.77725 10.5705 10.0665C10.5705 11.4022 9.85273 12.1957 8.64823 12.1957H8.00023V19.8637H12.387C19.0777 19.8637 21.4057 16.755 21.4882 12.1957H18.852V7.9695L18.8482 7.97325ZM15.918 10.3282H16.68L16.3282 9.1335H16.266L15.918 10.3282ZM14.2732 12.1987L15.5512 7.9725H17.0475L18.3202 12.1987H17.2275L16.9845 11.379H15.6097L15.372 12.1987H14.2732ZM13.77 11.145V12.195H11.1682V7.97325H13.6882V9.02325H12.219V9.516H13.605V10.566H12.219V11.145H13.77Z" fill="#D20072"/>
<path d="M2.50802 13.3552H6.15977V19.8592H2.50802V13.3552ZM6.60227 10.0822C6.60227 10.3804 6.54355 10.6756 6.42946 10.951C6.31536 11.2265 6.14814 11.4767 5.93733 11.6876C5.72651 11.8984 5.47624 12.0656 5.2008 12.1797C4.92537 12.2938 4.63015 12.3525 4.33202 12.3525C4.03388 12.3525 3.73867 12.2938 3.46323 12.1797C3.18779 12.0656 2.93752 11.8984 2.72671 11.6876C2.5159 11.4767 2.34867 11.2265 2.23458 10.951C2.12049 10.6756 2.06177 10.3804 2.06177 10.0822C2.06177 7.05525 6.60227 7.05525 6.60227 10.0822Z" fill="black"/>
</svg>
