<svg width="26" height="24" viewBox="0 0 26 24" fill="none" xmlns="http://www.w3.org/2000/svg">
<path fill-rule="evenodd" clip-rule="evenodd" d="M12.8012 0C9.3249 0 8.88863 0.0140309 7.52328 0.0713854C6.1606 0.128986 5.23045 0.328127 4.41658 0.620314C3.5747 0.922102 2.86056 1.3258 2.14909 1.98279C1.43708 2.63954 0.999744 3.29874 0.67174 4.07561C0.354404 4.82713 0.138401 5.68597 0.0770674 6.94333C0.0160002 8.20365 0 8.60661 0 11.8155C0 15.0244 0.0154668 15.4259 0.0773342 16.6862C0.140001 17.9441 0.355737 18.8027 0.672007 19.5539C0.99921 20.331 1.43655 20.9902 2.14829 21.647C2.8595 22.3042 3.57364 22.7089 4.41498 23.0107C5.22939 23.3029 6.1598 23.502 7.52221 23.5596C8.88756 23.617 9.32356 23.631 12.7996 23.631C16.2762 23.631 16.7111 23.617 18.0765 23.5596C19.4391 23.502 20.3703 23.3029 21.1848 23.0107C22.0264 22.7089 22.7394 22.3042 23.4506 21.647C24.1627 20.9902 24.6 20.331 24.928 19.5542C25.2427 18.8027 25.4587 17.9438 25.5227 16.6865C25.584 15.4261 25.6 15.0244 25.6 11.8155C25.6 8.60661 25.584 8.2039 25.5227 6.94358C25.4587 5.68572 25.2427 4.82713 24.928 4.07586C24.6 3.29874 24.1627 2.63954 23.4506 1.98279C22.7386 1.32555 22.0266 0.921856 21.184 0.620314C20.3679 0.328127 19.4373 0.128986 18.0746 0.0713854C16.7092 0.0140309 16.2746 0 12.7972 0H12.8012ZM12.3742 2.12916H12.3746L12.8012 2.12927C16.2188 2.12927 16.6239 2.14059 17.9735 2.19721C19.2215 2.24989 19.8989 2.44238 20.3501 2.60411C20.9474 2.81826 21.3733 3.07427 21.821 3.48781C22.269 3.90135 22.5464 4.2952 22.7789 4.84659C22.9541 5.2626 23.1629 5.88783 23.2197 7.03984C23.2811 8.2854 23.2944 8.65955 23.2944 11.8128C23.2944 14.9661 23.2811 15.3402 23.2197 16.5858C23.1627 17.7378 22.9541 18.363 22.7789 18.779C22.5469 19.3304 22.269 19.7231 21.821 20.1364C21.373 20.5499 20.9477 20.8059 20.3501 21.0201C19.8994 21.1825 19.2215 21.3745 17.9735 21.4272C16.6242 21.4838 16.2188 21.4961 12.8012 21.4961C9.38331 21.4961 8.97824 21.4838 7.62889 21.4272C6.38088 21.374 5.70354 21.1815 5.25207 21.0198C4.65473 20.8056 4.22806 20.5496 3.78005 20.1361C3.33205 19.7226 3.05471 19.3297 2.82218 18.7781C2.64697 18.3621 2.43817 17.7368 2.38137 16.5848C2.32004 15.3393 2.30777 14.9651 2.30777 11.8099C2.30777 8.65463 2.32004 8.28244 2.38137 7.03689C2.43844 5.88488 2.64697 5.25964 2.82218 4.84315C3.05418 4.29175 3.33205 3.8979 3.78005 3.48436C4.22806 3.07082 4.65473 2.81482 5.25207 2.60017C5.70327 2.4377 6.38088 2.2457 7.62889 2.19278C8.8097 2.14355 9.26731 2.12878 11.6529 2.12632V2.12927C11.8758 2.12895 12.1155 2.12905 12.3742 2.12916ZM18.0978 5.5085C18.0978 4.72548 18.7858 4.09113 19.6338 4.09113V4.09064C20.4818 4.09064 21.1698 4.72572 21.1698 5.5085C21.1698 6.29128 20.4818 6.92636 19.6338 6.92636C18.7858 6.92636 18.0978 6.29128 18.0978 5.5085ZM12.8012 5.74776C9.17101 5.74776 6.22778 8.46459 6.22778 11.8155C6.22778 15.1664 9.17101 17.882 12.8012 17.882C16.4314 17.882 19.3735 15.1664 19.3735 11.8155C19.3735 8.46459 16.4314 5.74776 12.8012 5.74776ZM17.0679 11.8155C17.0679 9.64022 15.1575 7.877 12.8012 7.877C10.4446 7.877 8.53448 9.64022 8.53448 11.8155C8.53448 13.9905 10.4446 15.754 12.8012 15.754C15.1575 15.754 17.0679 13.9905 17.0679 11.8155Z" fill="white"/>
</svg>
