<svg width="37" height="37" viewBox="0 0 37 37" fill="none" xmlns="http://www.w3.org/2000/svg">
<circle cx="18.6431" cy="18.2498" r="17.7745" fill="url(#paint0_radial_909_1577)"/>
<path fill-rule="evenodd" clip-rule="evenodd" d="M18.6426 7.00464C15.5902 7.00464 15.2068 7.018 14.0076 7.07258C12.8104 7.1274 11.9933 7.31692 11.2783 7.595C10.5386 7.88222 9.91126 8.26643 9.28621 8.8917C8.6607 9.51674 8.27649 10.1441 7.98833 10.8835C7.70954 11.5987 7.51978 12.4161 7.4659 13.6128C7.41225 14.8122 7.39819 15.1957 7.39819 18.2497C7.39819 21.3037 7.41178 21.6858 7.46613 22.8853C7.52119 24.0824 7.71072 24.8995 7.98857 25.6145C8.27602 26.3541 8.66023 26.9815 9.28551 27.6065C9.91032 28.232 10.5377 28.6172 11.2768 28.9044C11.9923 29.1825 12.8097 29.372 14.0066 29.4268C15.2061 29.4814 15.5891 29.4948 18.6429 29.4948C21.6972 29.4948 22.0793 29.4814 23.2787 29.4268C24.4759 29.372 25.294 29.1825 26.0094 28.9044C26.7488 28.6172 27.3753 28.232 28.0001 27.6065C28.6256 26.9815 29.0098 26.3541 29.298 25.6148C29.5744 24.8995 29.7642 24.0821 29.8204 22.8855C29.8743 21.686 29.8883 21.3037 29.8883 18.2497C29.8883 15.1957 29.8743 14.8125 29.8204 13.613C29.7642 12.4159 29.5744 11.5987 29.298 10.8837C29.0098 10.1441 28.6256 9.51674 28.0001 8.8917C27.3746 8.26619 26.7491 7.88199 26.0087 7.595C25.2919 7.31692 24.4742 7.1274 23.2771 7.07258C22.0778 7.018 21.6959 7.00464 18.6426 7.00464ZM17.6355 9.03109C17.8314 9.03078 18.0421 9.03088 18.2695 9.03098C18.3897 9.03103 18.5146 9.03109 18.6443 9.03109C21.6468 9.03109 22.0026 9.04187 23.1883 9.09575C24.2847 9.14588 24.8798 9.32908 25.2762 9.483C25.8009 9.68682 26.1751 9.93046 26.5684 10.324C26.962 10.7176 27.2057 11.0925 27.4099 11.6172C27.5639 12.0131 27.7473 12.6082 27.7972 13.7046C27.8511 14.89 27.8628 15.2461 27.8628 18.2471C27.8628 21.2482 27.8511 21.6042 27.7972 22.7897C27.7471 23.8861 27.5639 24.4811 27.4099 24.877C27.2061 25.4018 26.962 25.7755 26.5684 26.1688C26.1748 26.5624 25.8012 26.806 25.2762 27.0098C24.8802 27.1645 24.2847 27.3472 23.1883 27.3973C22.0029 27.4512 21.6468 27.4629 18.6443 27.4629C15.6416 27.4629 15.2858 27.4512 14.1003 27.3973C13.0039 27.3467 12.4089 27.1635 12.0122 27.0096C11.4875 26.8058 11.1126 26.5622 10.719 26.1686C10.3255 25.775 10.0818 25.4011 9.87752 24.8761C9.72361 24.4802 9.54017 23.8851 9.49027 22.7887C9.43638 21.6033 9.42561 21.2472 9.42561 18.2443C9.42561 15.2414 9.43638 14.8872 9.49027 13.7018C9.5404 12.6054 9.7236 12.0103 9.87752 11.6139C10.0813 11.0892 10.3255 10.7143 10.719 10.3208C11.1126 9.92718 11.4875 9.68354 12.0122 9.47925C12.4086 9.32463 13.0039 9.1419 14.1003 9.09153C15.1377 9.04468 15.5397 9.03062 17.6355 9.02828L17.6355 9.03109ZM23.2975 12.2472C23.2975 11.502 23.9019 10.8983 24.6469 10.8983C25.3919 10.8983 25.9963 11.5022 25.9963 12.2472C25.9963 12.9922 25.3919 13.5966 24.6469 13.5966C23.9019 13.5966 23.2975 12.9922 23.2975 12.2472ZM18.6442 12.4749C15.4551 12.475 12.8694 15.0606 12.8694 18.2497C12.8694 21.4388 15.4551 24.0233 18.6443 24.0233C21.8335 24.0233 24.4183 21.4388 24.4183 18.2497C24.4183 15.0606 21.8333 12.475 18.6442 12.4749ZM22.3927 18.2497C22.3927 16.1794 20.7144 14.5014 18.6443 14.5014C16.574 14.5014 14.8959 16.1794 14.8959 18.2497C14.8959 20.3197 16.574 21.9981 18.6443 21.9981C20.7144 21.9981 22.3927 20.3197 22.3927 18.2497Z" fill="white"/>
<defs>
<radialGradient id="paint0_radial_909_1577" cx="0" cy="0" r="1" gradientUnits="userSpaceOnUse" gradientTransform="translate(11.751 35.2988) rotate(-90) scale(33.7352)">
<stop stop-color="#FFDD55"/>
<stop offset="0.1" stop-color="#FFDD55"/>
<stop offset="0.5" stop-color="#FF543E"/>
<stop offset="1" stop-color="#C837AB"/>
</radialGradient>
</defs>
</svg>
