<svg width="45" height="45" viewBox="0 0 45 45" fill="none" xmlns="http://www.w3.org/2000/svg">
<g filter="url(#filter0_d_909_409)">
<path d="M10.2017 19.1911C10.2017 12.2105 15.8606 6.55151 22.8413 6.55151C29.822 6.55151 35.4809 12.2105 35.4809 19.1911C35.4809 26.1718 29.822 31.8308 22.8413 31.8308C15.8606 31.8308 10.2017 26.1718 10.2017 19.1911Z" fill="white"/>
</g>
<path d="M22.8745 24.5216C20.9852 23.3699 16.9165 20.3253 16.9165 17.6137C16.9165 15.8699 18.287 14.4513 19.9715 14.4513C20.9334 14.4513 21.8199 14.9066 22.4037 15.7003L22.8655 16.3282L23.3273 15.7003C23.911 14.9066 24.7976 14.4513 25.7595 14.4513C27.444 14.4513 28.8145 15.8699 28.8145 17.6137C28.8145 20.9018 24.0724 23.8337 22.8745 24.5216Z" stroke="black" stroke-width="0.789976"/>
<defs>
<filter id="filter0_d_909_409" x="0.721945" y="0.231704" width="44.2387" height="44.2387" filterUnits="userSpaceOnUse" color-interpolation-filters="sRGB">
<feFlood flood-opacity="0" result="BackgroundImageFix"/>
<feColorMatrix in="SourceAlpha" type="matrix" values="0 0 0 0 0 0 0 0 0 0 0 0 0 0 0 0 0 0 127 0" result="hardAlpha"/>
<feOffset dy="3.15991"/>
<feGaussianBlur stdDeviation="4.73986"/>
<feColorMatrix type="matrix" values="0 0 0 0 0 0 0 0 0 0 0 0 0 0 0 0 0 0 0.1 0"/>
<feBlend mode="normal" in2="BackgroundImageFix" result="effect1_dropShadow_909_409"/>
<feBlend mode="normal" in="SourceGraphic" in2="effect1_dropShadow_909_409" result="shape"/>
</filter>
</defs>
</svg>
