<svg width="15" height="15" viewBox="0 0 15 15" fill="none" xmlns="http://www.w3.org/2000/svg">
<path fill-rule="evenodd" clip-rule="evenodd" d="M14.2334 13.365C14.5343 13.365 14.7785 13.6092 14.7785 13.9101C14.7785 14.211 14.5343 14.4552 14.2334 14.4552L8.96199 14.4552C8.66109 14.4552 8.41689 14.211 8.41689 13.9101C8.41689 13.6092 8.66109 13.365 8.96199 13.365L14.2334 13.365ZM10.8653 1.16513C10.9016 1.19347 12.1176 2.1383 12.1176 2.1383C12.5595 2.4014 12.9047 2.87163 13.0355 3.42836C13.1656 3.97926 13.0711 4.54762 12.768 5.02803C12.766 5.03123 12.764 5.03439 12.757 5.04381L12.7515 5.05109C12.7023 5.11592 12.4885 5.38633 11.4092 6.73859C11.3991 6.75632 11.3878 6.77291 11.3754 6.78904C11.3572 6.81282 11.3374 6.83467 11.3162 6.85457C11.2426 6.94726 11.1648 7.04466 11.0831 7.14706L10.9174 7.35453C10.5756 7.78259 10.1702 8.29019 9.6892 8.89225L9.44235 9.20122C8.51375 10.3635 7.32449 11.8516 5.80102 13.7575C5.46742 14.1733 4.96739 14.4153 4.43029 14.4218L1.7855 14.4552L1.77823 14.4552C1.52603 14.4552 1.30654 14.2823 1.24767 14.0359L0.652427 11.5132C0.529599 10.9906 0.6517 10.4513 0.986751 10.0327L7.83313 1.46965C7.83604 1.46674 7.83822 1.46311 7.84113 1.4602C8.5919 0.562615 9.94955 0.430339 10.8653 1.16513ZM7.0698 4.16922L1.83782 10.7137C1.71354 10.8693 1.66776 11.0698 1.71354 11.2624L2.20849 13.3592L4.41721 13.3316C4.62725 13.3294 4.82131 13.2357 4.94995 13.0758C5.61241 12.2469 6.445 11.2052 7.30101 10.134L7.60387 9.75502L7.90724 9.37538C8.71004 8.37072 9.50314 7.37805 10.1668 6.54718L7.0698 4.16922ZM8.68057 2.15574L7.7508 3.31742L10.8475 5.6947C11.4436 4.94812 11.8357 4.4564 11.8719 4.40953C11.9911 4.2162 12.0376 3.94292 11.9751 3.67983C11.9112 3.41019 11.7433 3.18125 11.5013 3.03516C11.4496 2.99955 10.225 2.0489 10.1872 2.01911C9.72643 1.6499 9.05414 1.71385 8.68057 2.15574Z" fill="#800080"/>
</svg>
