<svg width="40" height="40" viewBox="0 0 40 40" fill="none" xmlns="http://www.w3.org/2000/svg">
<circle opacity="0.1" cx="20" cy="20" r="20" fill="#FF3838"/>
<path d="M18.8225 11C16.6622 11 14.9002 12.7317 14.9002 14.8638V19.0321H20.2126C20.5933 19.0321 20.8944 19.328 20.8944 19.7021C20.8944 20.0676 20.5933 20.3722 20.2126 20.3722H14.9002V24.5318C14.9002 26.6639 16.6622 28.4043 18.8402 28.4043H23.1521C25.3213 28.4043 27.0833 26.6726 27.0833 24.5405V14.8725C27.0833 12.7317 25.3125 11 23.1433 11H18.8225ZM12.6897 16.7001C12.4287 16.4303 12.0023 16.4303 11.7412 16.6914L9.20016 19.2237C9.06963 19.3542 9.00001 19.5196 9.00001 19.7023C9.00001 19.8764 9.06963 20.0504 9.20016 20.1722L11.7412 22.7046C11.8717 22.8351 12.0458 22.9047 12.2111 22.9047C12.3851 22.9047 12.5592 22.8351 12.6897 22.7046C12.9508 22.4435 12.9508 22.0171 12.6897 21.756L11.2974 20.3724H14.9001V19.0323H11.2974L12.6897 17.6486C12.9508 17.3876 12.9508 16.9611 12.6897 16.7001Z" fill="#FF3838"/>
</svg>
