<svg id="svg" version="1.1" xmlns="http://www.w3.org/2000/svg" xmlns:xlink="http://www.w3.org/1999/xlink" width="400" height="107.2" viewBox="0, 0, 400,107.2"><g id="svgg"><path id="path0" d="M0.886 0.325 C -0.208 0.992,-0.372 2.495,0.548 3.415 L 1.097 3.963 7.340 4.047 C 13.970 4.136,14.731 4.218,17.333 5.134 C 22.692 7.019,27.042 11.164,29.174 16.417 C 29.434 17.058,29.996 18.371,30.422 19.333 C 30.849 20.296,31.761 22.396,32.449 24.000 C 33.137 25.604,33.917 27.391,34.183 27.970 C 34.449 28.549,34.667 29.050,34.667 29.083 C 34.667 29.116,34.884 29.617,35.151 30.197 C 35.417 30.776,35.835 31.738,36.081 32.333 C 36.327 32.929,36.746 33.886,37.014 34.459 C 37.281 35.032,37.500 35.542,37.500 35.591 C 37.500 35.641,37.762 36.243,38.083 36.928 C 38.404 37.613,38.667 38.208,38.667 38.249 C 38.667 38.291,38.899 38.833,39.184 39.454 C 39.468 40.075,39.893 41.071,40.127 41.667 C 40.361 42.262,40.609 42.825,40.678 42.917 C 40.748 43.008,41.042 43.683,41.333 44.417 C 41.624 45.150,41.919 45.825,41.988 45.917 C 42.058 46.008,42.321 46.608,42.573 47.250 C 42.825 47.892,43.203 48.792,43.414 49.250 C 43.981 50.482,44.705 52.140,47.418 58.417 C 48.765 61.533,50.047 64.472,50.267 64.948 C 50.487 65.424,50.667 65.853,50.667 65.902 C 50.667 65.951,50.850 66.387,51.073 66.870 C 51.710 68.249,53.500 72.346,53.500 72.426 C 53.500 72.466,53.762 73.067,54.083 73.761 C 54.404 74.456,54.667 75.059,54.667 75.102 C 54.667 75.145,54.883 75.646,55.147 76.215 C 55.411 76.784,56.192 78.563,56.883 80.167 C 57.575 81.771,58.714 84.396,59.416 86.000 C 60.117 87.604,61.254 90.229,61.943 91.833 C 62.632 93.438,63.376 95.139,63.598 95.615 C 63.819 96.090,64.000 96.516,64.000 96.561 C 64.000 96.606,64.216 97.117,64.481 97.697 C 64.745 98.276,65.429 99.837,66.001 101.167 C 66.572 102.496,67.205 103.958,67.407 104.417 C 67.609 104.875,67.872 105.495,67.992 105.795 C 68.327 106.633,69.065 107.167,69.888 107.166 C 71.163 107.165,71.531 106.777,72.889 104.012 L 74.114 101.517 74.667 102.800 C 76.444 106.925,76.629 107.167,78.010 107.167 C 79.039 107.167,79.643 106.473,80.968 103.767 L 82.102 101.450 82.412 102.267 C 82.704 103.038,83.309 104.419,84.012 105.920 C 85.157 108.363,87.106 107.560,88.831 103.935 C 90.078 101.313,89.990 101.383,90.496 102.625 C 92.140 106.657,92.648 107.287,94.121 107.121 C 95.155 107.005,95.461 106.642,96.759 103.994 C 98.095 101.269,97.957 101.354,98.565 102.877 C 99.991 106.450,100.515 107.167,101.700 107.167 C 103.079 107.167,103.192 107.020,105.709 101.946 C 108.888 95.537,114.830 83.510,117.417 78.250 C 118.724 75.592,121.725 69.517,124.084 64.750 C 126.444 59.983,129.556 53.683,131.000 50.750 C 132.443 47.817,135.324 41.978,137.401 37.776 C 139.567 33.392,141.255 29.771,141.360 29.282 C 141.908 26.728,140.756 23.864,138.609 22.442 C 136.809 21.250,138.804 21.333,112.061 21.333 L 87.967 21.333 87.400 21.900 C 86.603 22.697,86.576 23.926,87.339 24.672 C 87.617 24.944,87.861 25.183,87.881 25.203 C 87.901 25.223,91.530 25.279,95.946 25.328 C 105.051 25.429,104.524 25.343,105.299 26.843 C 105.855 27.919,105.779 28.145,102.929 33.917 C 101.525 36.758,98.711 42.458,96.676 46.583 C 94.640 50.708,91.638 56.783,90.003 60.083 L 87.033 66.083 86.701 65.333 C 86.519 64.921,85.754 63.158,85.002 61.417 C 84.250 59.675,83.502 57.950,83.338 57.583 C 83.175 57.217,81.936 54.367,80.585 51.250 C 79.234 48.133,77.958 45.208,77.750 44.750 C 77.541 44.292,76.755 42.492,76.002 40.750 C 75.250 39.008,74.342 36.927,73.984 36.125 C 73.626 35.323,73.333 34.634,73.333 34.595 C 73.333 34.555,73.116 34.049,72.851 33.470 C 72.585 32.891,71.900 31.329,71.327 30.000 C 70.755 28.671,69.896 26.683,69.418 25.583 C 68.941 24.483,68.080 22.496,67.507 21.167 C 66.933 19.837,66.285 18.354,66.066 17.871 C 65.847 17.388,65.477 16.525,65.243 15.954 C 61.550 6.917,54.648 1.303,45.848 0.179 C 42.946 -0.192,1.512 -0.057,0.886 0.325 M28.821 6.799 C 32.882 9.160,35.271 12.119,37.731 17.833 C 38.540 19.712,39.381 21.639,39.601 22.115 C 39.820 22.590,40.000 23.016,40.000 23.061 C 40.000 23.106,40.219 23.617,40.486 24.197 C 40.754 24.776,41.324 26.075,41.753 27.083 C 42.571 29.006,44.087 32.466,44.767 33.963 C 44.987 34.447,45.167 34.874,45.167 34.911 C 45.167 34.967,46.558 38.173,47.411 40.083 C 47.534 40.358,48.101 41.671,48.671 43.000 C 49.241 44.329,49.876 45.792,50.082 46.250 C 50.288 46.708,50.922 48.171,51.490 49.500 C 52.059 50.829,52.706 52.306,52.929 52.781 C 53.151 53.257,53.333 53.683,53.333 53.728 C 53.333 53.773,53.551 54.284,53.816 54.863 C 54.082 55.443,54.764 57.004,55.332 58.333 C 55.900 59.663,56.499 61.050,56.663 61.417 C 56.827 61.783,57.465 63.246,58.080 64.667 C 58.695 66.087,59.379 67.639,59.599 68.115 C 59.820 68.590,60.000 69.016,60.000 69.061 C 60.000 69.106,60.216 69.617,60.481 70.197 C 60.745 70.776,61.428 72.337,61.998 73.667 C 62.569 74.996,63.172 76.383,63.340 76.750 C 63.508 77.117,64.146 78.579,64.758 80.000 C 65.370 81.421,66.049 82.972,66.268 83.448 C 66.487 83.924,66.667 84.353,66.667 84.402 C 66.667 84.451,66.851 84.887,67.077 85.370 C 67.303 85.854,67.743 86.850,68.054 87.583 C 68.366 88.317,69.378 90.654,70.302 92.777 L 71.982 96.637 71.116 98.400 C 70.131 100.405,70.105 100.417,69.574 99.110 C 69.359 98.582,68.999 97.759,68.775 97.283 C 68.550 96.806,68.179 95.967,67.950 95.417 C 67.721 94.867,67.219 93.704,66.835 92.833 C 66.451 91.962,65.817 90.500,65.426 89.583 C 65.034 88.667,63.831 85.892,62.751 83.417 C 61.671 80.942,60.532 78.317,60.220 77.583 C 59.908 76.850,59.515 75.950,59.346 75.583 C 59.177 75.217,58.837 74.429,58.590 73.833 C 58.343 73.237,58.005 72.450,57.838 72.083 C 57.426 71.180,56.584 69.260,55.244 66.167 C 54.111 63.551,52.507 59.862,49.900 53.875 C 49.112 52.065,48.258 50.096,48.002 49.500 C 47.210 47.654,46.378 45.744,45.959 44.811 C 45.738 44.319,45.383 43.467,45.168 42.917 C 44.954 42.367,44.722 41.841,44.653 41.750 C 44.584 41.658,44.376 41.198,44.191 40.729 C 44.006 40.259,43.704 39.547,43.519 39.146 C 42.968 37.948,38.500 27.648,38.500 27.575 C 38.500 27.538,38.237 26.947,37.917 26.261 C 37.596 25.576,37.333 24.980,37.333 24.936 C 37.333 24.892,37.118 24.383,36.855 23.803 C 36.592 23.224,35.984 21.850,35.505 20.750 C 35.026 19.650,34.341 18.094,33.983 17.291 C 33.626 16.489,33.333 15.801,33.333 15.762 C 33.333 15.723,33.071 15.123,32.750 14.428 C 32.429 13.734,32.167 13.126,32.167 13.078 C 32.167 12.446,29.558 8.883,27.677 6.946 C 26.075 5.296,26.207 5.279,28.821 6.799 M35.542 6.093 C 39.807 8.233,43.213 11.923,45.074 16.417 C 45.340 17.058,45.759 18.033,46.006 18.583 C 46.252 19.133,46.921 20.671,47.492 22.000 C 48.064 23.329,48.667 24.717,48.832 25.083 C 49.292 26.104,50.191 28.167,51.336 30.833 C 51.907 32.162,52.507 33.550,52.670 33.917 C 52.832 34.283,53.169 35.071,53.417 35.667 C 53.665 36.262,53.923 36.825,53.991 36.917 C 54.058 37.008,54.362 37.721,54.667 38.500 C 54.971 39.279,55.277 39.992,55.346 40.084 C 55.416 40.176,55.621 40.626,55.802 41.084 C 55.983 41.542,56.318 42.329,56.546 42.833 C 56.774 43.337,57.428 44.837,58.000 46.167 C 58.572 47.496,59.192 48.921,59.377 49.333 C 59.826 50.335,60.767 52.516,61.282 53.750 C 61.511 54.300,61.888 55.163,62.119 55.667 C 62.351 56.171,62.985 57.633,63.529 58.917 C 64.073 60.200,64.656 61.550,64.824 61.917 C 65.816 64.078,66.500 65.626,66.500 65.707 C 66.500 65.758,66.800 66.444,67.167 67.230 C 67.533 68.016,67.833 68.692,67.833 68.733 C 67.833 68.773,67.996 69.168,68.195 69.611 C 68.393 70.054,68.569 70.454,68.585 70.500 C 68.629 70.627,69.126 71.759,69.848 73.375 C 70.207 74.177,70.500 74.869,70.500 74.913 C 70.500 74.956,70.723 75.479,70.996 76.074 C 71.268 76.669,71.688 77.627,71.930 78.203 C 72.171 78.779,72.520 79.587,72.707 80.000 C 73.143 80.965,74.082 83.138,74.614 84.417 C 74.843 84.967,75.240 85.867,75.497 86.417 C 76.233 87.995,76.238 87.926,75.270 89.916 L 74.379 91.750 73.856 90.632 C 73.569 90.017,73.333 89.479,73.333 89.435 C 73.333 89.392,73.115 88.883,72.848 88.303 C 72.091 86.662,71.567 85.474,70.251 82.417 C 69.580 80.858,68.379 78.083,67.581 76.250 C 66.783 74.417,65.905 72.392,65.630 71.750 C 65.355 71.108,64.977 70.246,64.790 69.833 C 64.603 69.421,64.244 68.596,63.991 68.000 C 63.738 67.404,63.218 66.204,62.834 65.333 C 62.450 64.462,61.837 63.038,61.472 62.167 C 61.107 61.296,60.626 60.194,60.404 59.719 C 60.182 59.243,60.000 58.816,60.000 58.770 C 60.000 58.724,59.700 58.040,59.333 57.250 C 58.967 56.460,58.667 55.780,58.667 55.738 C 58.667 55.697,58.521 55.345,58.344 54.957 C 58.166 54.568,57.596 53.275,57.076 52.083 C 56.556 50.892,55.770 49.092,55.330 48.083 C 54.890 47.075,54.028 45.087,53.414 43.667 C 52.801 42.246,51.939 40.258,51.500 39.250 C 51.060 38.242,49.824 35.392,48.751 32.917 C 47.679 30.442,46.554 27.854,46.251 27.167 C 45.948 26.479,44.601 23.367,43.256 20.250 C 39.363 11.223,38.674 10.005,35.829 7.125 C 34.947 6.231,34.255 5.500,34.292 5.500 C 34.330 5.500,34.892 5.767,35.542 6.093 M44.333 6.532 C 48.476 8.859,51.572 12.591,53.501 17.583 C 53.714 18.133,53.944 18.659,54.013 18.750 C 54.082 18.842,54.288 19.296,54.470 19.758 C 54.653 20.221,55.026 21.083,55.300 21.675 C 56.045 23.284,57.167 25.824,57.167 25.903 C 57.167 25.941,57.329 26.335,57.528 26.778 C 57.727 27.221,57.902 27.621,57.917 27.667 C 57.971 27.829,58.303 28.597,58.747 29.583 C 58.994 30.133,59.747 31.870,60.420 33.442 C 61.093 35.014,61.792 36.627,61.973 37.025 C 62.526 38.241,64.032 41.719,64.235 42.250 C 64.340 42.525,64.515 42.908,64.623 43.101 C 64.731 43.294,64.964 43.819,65.142 44.267 C 65.319 44.716,65.654 45.497,65.886 46.003 C 66.118 46.509,66.468 47.329,66.664 47.826 C 66.859 48.322,67.198 49.109,67.417 49.573 C 67.758 50.298,69.989 55.409,71.749 59.500 C 72.045 60.188,72.440 61.088,72.626 61.500 C 72.813 61.913,73.167 62.737,73.413 63.333 C 73.659 63.929,74.042 64.806,74.264 65.281 C 74.485 65.757,74.667 66.183,74.667 66.228 C 74.667 66.272,74.937 66.894,75.267 67.609 C 75.598 68.324,76.316 69.961,76.863 71.246 C 77.410 72.532,78.040 73.972,78.262 74.448 C 78.485 74.924,78.667 75.350,78.667 75.395 C 78.667 75.440,78.883 75.951,79.147 76.530 C 80.586 79.683,80.556 79.224,79.462 81.431 L 78.591 83.187 78.217 82.385 C 78.012 81.944,77.347 80.421,76.739 79.000 C 76.131 77.579,75.523 76.192,75.387 75.917 C 75.251 75.642,74.926 74.892,74.664 74.250 C 74.403 73.608,73.804 72.221,73.333 71.167 C 72.862 70.112,72.337 68.903,72.166 68.479 C 71.995 68.055,71.703 67.380,71.517 66.979 C 71.332 66.578,70.906 65.612,70.571 64.833 C 69.325 61.932,69.013 61.212,68.331 59.667 C 67.646 58.110,66.752 56.051,65.619 53.416 C 65.304 52.683,64.878 51.713,64.672 51.261 C 64.466 50.810,63.864 49.417,63.333 48.167 C 62.803 46.916,62.218 45.561,62.033 45.155 C 61.253 43.439,60.736 42.257,59.556 39.500 C 58.870 37.896,58.205 36.358,58.079 36.083 C 57.953 35.808,57.055 33.746,56.083 31.500 C 55.112 29.254,54.217 27.192,54.094 26.917 C 53.972 26.642,53.144 24.729,52.253 22.667 C 48.789 14.646,47.796 12.490,46.875 11.000 C 46.451 10.313,46.061 9.712,46.010 9.667 C 45.959 9.621,45.618 9.208,45.254 8.750 C 44.889 8.292,44.037 7.369,43.362 6.699 C 42.004 5.354,42.182 5.323,44.333 6.532 M52.500 6.675 C 53.188 7.063,53.788 7.427,53.833 7.483 C 53.879 7.539,54.329 7.894,54.833 8.271 C 57.864 10.537,59.518 12.944,61.921 18.583 C 62.624 20.233,63.417 22.052,63.683 22.625 C 63.949 23.199,64.167 23.703,64.167 23.746 C 64.167 23.790,64.382 24.296,64.645 24.871 C 64.908 25.446,65.589 27.004,66.157 28.333 C 66.725 29.662,67.373 31.139,67.595 31.615 C 67.818 32.090,68.000 32.516,68.000 32.561 C 68.000 32.606,68.262 33.211,68.583 33.905 C 68.904 34.600,69.167 35.196,69.167 35.230 C 69.167 35.263,69.332 35.657,69.535 36.104 C 69.737 36.551,69.911 36.954,69.921 37.000 C 69.931 37.046,70.141 37.524,70.387 38.062 C 70.632 38.601,70.833 39.067,70.833 39.099 C 70.833 39.131,71.012 39.553,71.230 40.037 C 71.448 40.521,72.095 42.004,72.667 43.333 C 73.239 44.663,73.875 46.125,74.081 46.583 C 74.288 47.042,74.888 48.429,75.415 49.667 C 75.941 50.904,76.626 52.467,76.936 53.140 C 77.246 53.813,77.500 54.392,77.500 54.427 C 77.500 54.462,77.681 54.886,77.902 55.370 C 78.122 55.854,78.768 57.337,79.337 58.667 C 79.906 59.996,80.588 61.549,80.852 62.118 C 81.117 62.687,81.333 63.191,81.333 63.238 C 81.333 63.286,81.515 63.720,81.738 64.204 C 81.960 64.688,82.375 65.646,82.661 66.333 C 82.946 67.021,83.244 67.701,83.323 67.845 C 83.619 68.388,84.556 70.734,84.556 70.933 C 84.556 71.194,82.951 74.490,82.821 74.496 C 82.769 74.498,82.362 73.656,81.918 72.625 C 81.475 71.594,80.942 70.375,80.735 69.917 C 80.529 69.458,80.173 68.633,79.945 68.083 C 79.717 67.533,79.268 66.483,78.946 65.750 C 78.157 63.949,76.783 60.792,75.429 57.667 C 74.814 56.246,74.203 54.858,74.073 54.583 C 73.694 53.786,71.352 48.383,70.726 46.864 C 70.413 46.102,70.085 45.352,69.997 45.198 C 69.910 45.043,69.340 43.754,68.732 42.333 C 68.123 40.912,67.215 38.813,66.715 37.667 C 66.214 36.521,65.593 35.096,65.335 34.500 C 65.076 33.904,64.550 32.704,64.166 31.833 C 63.781 30.962,63.181 29.575,62.832 28.750 C 61.854 26.439,61.070 24.631,60.597 23.597 C 60.360 23.080,60.167 22.618,60.167 22.571 C 60.167 22.525,59.943 22.007,59.669 21.421 C 59.395 20.835,59.028 19.994,58.853 19.553 C 58.679 19.111,58.344 18.332,58.109 17.820 C 57.875 17.309,57.242 15.884,56.703 14.654 C 55.217 11.261,53.676 9.003,51.191 6.574 C 49.921 5.332,50.152 5.350,52.500 6.675 M112.451 25.799 C 113.738 26.715,113.803 27.980,112.682 30.256 C 112.232 31.169,110.281 35.142,108.348 39.083 C 106.414 43.025,104.756 46.362,104.663 46.500 C 104.570 46.637,104.377 47.012,104.234 47.333 C 104.091 47.654,102.565 50.767,100.842 54.250 C 99.118 57.733,96.142 63.754,94.227 67.630 L 90.746 74.677 90.006 72.977 C 89.067 70.819,88.615 72.153,93.923 61.417 C 108.188 32.562,109.310 30.257,109.501 29.431 C 109.732 28.431,109.700 26.998,109.427 26.089 L 109.187 25.293 110.565 25.365 C 111.633 25.421,112.058 25.519,112.451 25.799 M120.001 25.603 C 120.821 25.931,121.500 26.971,121.500 27.898 C 121.500 28.368,120.679 30.177,118.104 35.384 C 116.235 39.160,113.788 44.125,112.664 46.417 C 110.726 50.368,104.828 62.308,97.783 76.542 C 96.025 80.094,94.540 83.000,94.482 83.000 C 94.371 83.000,93.531 81.177,93.152 80.115 C 92.927 79.484,92.933 79.467,94.203 76.949 C 94.905 75.556,96.713 71.904,98.219 68.833 C 99.726 65.762,102.664 59.800,104.749 55.583 C 106.833 51.367,109.721 45.517,111.165 42.583 C 112.609 39.650,114.591 35.640,115.569 33.672 C 117.672 29.440,117.897 28.605,117.484 26.576 L 117.231 25.333 118.279 25.333 C 118.856 25.333,119.630 25.455,120.001 25.603 M128.270 25.761 C 129.947 27.013,129.903 27.667,127.864 31.750 C 126.948 33.583,124.777 37.971,123.038 41.500 C 121.299 45.029,118.320 51.067,116.418 54.917 C 114.516 58.767,111.311 65.254,109.296 69.333 C 107.281 73.412,104.290 79.467,102.650 82.788 C 101.009 86.109,99.667 88.867,99.667 88.919 C 99.667 88.970,99.535 89.211,99.375 89.455 C 99.215 89.699,98.888 90.338,98.650 90.874 L 98.216 91.850 97.413 89.992 L 96.610 88.134 98.043 85.276 C 98.831 83.703,100.709 79.904,102.217 76.833 C 105.345 70.465,109.783 61.473,115.750 49.417 C 126.898 26.889,126.138 28.791,125.233 25.690 L 125.118 25.296 126.464 25.357 C 127.497 25.404,127.918 25.498,128.270 25.761 M136.296 25.779 C 136.966 26.279,137.387 27.104,137.375 27.894 C 137.364 28.649,137.476 28.416,120.332 63.083 C 118.428 66.933,115.577 72.708,113.997 75.917 C 112.417 79.125,109.138 85.763,106.711 90.667 C 104.284 95.571,102.229 99.762,102.144 99.981 C 101.954 100.474,102.034 100.588,101.102 98.483 L 100.321 96.717 102.251 92.845 C 103.313 90.715,105.407 86.485,106.905 83.445 C 108.403 80.404,111.296 74.542,113.334 70.417 C 115.373 66.292,118.447 60.067,120.167 56.583 C 121.886 53.100,125.072 46.650,127.245 42.250 C 129.419 37.850,131.694 33.242,132.301 32.010 C 133.554 29.466,133.849 27.661,133.278 26.021 L 133.025 25.293 134.433 25.367 C 135.508 25.423,135.949 25.521,136.296 25.779 M87.392 77.208 C 88.486 79.580,88.483 79.339,87.444 81.410 L 86.527 83.237 86.083 82.244 C 85.838 81.697,85.488 80.875,85.305 80.417 L 84.971 79.583 85.854 77.792 C 86.903 75.665,86.713 75.737,87.392 77.208 M83.393 86.296 L 84.152 88.009 83.284 89.834 C 82.807 90.837,82.379 91.660,82.332 91.662 C 82.221 91.668,81.378 89.818,81.238 89.263 C 81.179 89.025,81.063 88.789,80.982 88.739 C 80.900 88.688,80.833 88.498,80.833 88.316 C 80.833 87.959,82.458 84.401,82.569 84.515 C 82.605 84.553,82.976 85.354,83.393 86.296 M91.284 86.142 C 92.145 88.011,92.144 88.029,91.152 90.006 L 90.277 91.750 89.621 90.333 C 88.656 88.247,88.657 88.178,89.675 86.156 C 90.191 85.131,90.585 84.519,90.635 84.667 C 90.681 84.804,90.973 85.468,91.284 86.142 M95.246 95.239 L 95.840 96.562 94.911 98.479 L 93.982 100.396 93.190 98.573 L 92.397 96.750 93.323 94.870 C 94.234 93.020,94.252 92.997,94.451 93.453 C 94.562 93.708,94.920 94.512,95.246 95.239 M79.138 94.763 C 79.995 96.729,80.008 96.456,78.952 98.581 L 78.071 100.354 77.277 98.528 L 76.484 96.703 77.363 94.935 C 78.424 92.801,78.289 92.815,79.138 94.763 M86.656 93.792 C 86.779 94.135,87.094 94.874,87.356 95.433 C 87.949 96.695,87.987 96.416,86.927 98.582 L 86.031 100.414 85.616 99.473 C 85.387 98.956,85.145 98.357,85.077 98.141 C 85.010 97.926,84.853 97.602,84.728 97.421 C 84.386 96.927,84.430 96.744,85.334 94.883 C 86.265 92.967,86.340 92.906,86.656 93.792 " stroke="none" fill="#7c2b7c" fill-rule="evenodd"></path><path id="path1" d="M158.103 21.577 C 157.954 21.803,157.833 22.029,157.833 22.078 C 157.833 22.128,157.121 23.636,156.250 25.430 C 155.379 27.223,154.667 28.717,154.667 28.748 C 154.667 28.780,153.964 30.256,153.106 32.028 C 152.247 33.800,151.300 35.775,151.000 36.417 C 150.700 37.058,149.876 38.783,149.170 40.250 C 148.463 41.717,147.654 43.404,147.373 44.000 C 147.091 44.596,146.322 46.208,145.662 47.583 C 145.002 48.958,144.162 50.721,143.794 51.500 C 143.426 52.279,142.421 54.369,141.562 56.143 C 140.703 57.918,140.000 59.394,140.000 59.424 C 140.000 59.453,139.372 60.776,138.605 62.364 C 137.838 63.951,136.891 65.925,136.502 66.750 C 136.112 67.575,135.269 69.337,134.629 70.667 C 133.043 73.958,132.154 75.822,131.370 77.500 C 131.005 78.279,130.109 80.154,129.378 81.667 C 128.647 83.179,127.820 84.904,127.541 85.500 C 127.261 86.096,126.696 87.296,126.285 88.167 C 122.167 96.888,123.308 103.781,129.250 106.080 C 131.648 107.008,132.199 107.084,136.417 107.075 C 140.996 107.065,141.977 106.934,146.514 105.732 L 148.111 105.308 148.382 103.362 C 149.442 95.752,150.008 91.861,150.106 91.515 C 150.208 91.154,150.179 91.125,149.818 91.224 C 146.009 92.267,144.590 91.184,145.970 88.289 C 146.243 87.718,146.728 86.688,147.047 86.000 C 147.929 84.103,148.950 81.933,149.832 80.083 C 150.269 79.167,150.944 77.742,151.333 76.917 C 151.722 76.092,152.398 74.667,152.834 73.750 C 153.271 72.833,153.870 71.558,154.166 70.917 C 154.462 70.275,155.005 69.112,155.371 68.333 C 156.241 66.487,156.984 64.899,157.751 63.250 C 158.092 62.517,158.729 61.167,159.165 60.250 C 160.695 57.041,162.366 53.514,163.667 50.750 C 165.387 47.095,165.739 46.344,166.287 45.167 C 167.657 42.223,169.052 39.258,170.168 36.917 C 170.605 36.000,171.244 34.650,171.588 33.917 C 171.932 33.183,172.766 31.432,173.440 30.026 C 174.115 28.619,174.667 27.442,174.667 27.410 C 174.667 27.359,175.016 26.614,177.015 22.393 C 177.282 21.830,177.500 21.323,177.500 21.268 C 177.500 21.212,173.196 21.167,167.936 21.167 L 158.372 21.167 158.103 21.577 M305.939 21.297 C 305.896 21.367,305.600 22.097,305.282 22.920 C 304.406 25.183,302.341 30.329,302.006 31.083 C 301.843 31.450,301.544 32.200,301.342 32.750 C 301.140 33.300,300.872 33.975,300.745 34.250 C 300.619 34.525,300.285 35.350,300.003 36.083 C 299.721 36.817,299.418 37.567,299.330 37.750 C 299.242 37.933,298.976 38.608,298.738 39.250 C 298.501 39.892,298.204 40.642,298.078 40.917 C 297.952 41.192,297.617 42.017,297.333 42.750 C 297.050 43.483,296.718 44.308,296.597 44.583 C 296.476 44.858,296.168 45.646,295.914 46.333 C 295.660 47.021,295.399 47.658,295.333 47.750 C 295.268 47.842,295.006 48.479,294.751 49.167 C 294.496 49.854,294.158 50.717,294.000 51.083 C 293.842 51.450,293.504 52.313,293.249 53.000 C 292.994 53.688,292.732 54.325,292.667 54.417 C 292.601 54.508,292.339 55.146,292.085 55.833 C 291.830 56.521,291.457 57.458,291.256 57.917 C 291.055 58.375,290.716 59.237,290.502 59.833 C 290.288 60.429,290.060 60.992,289.997 61.083 C 289.933 61.175,289.673 61.813,289.418 62.500 C 289.163 63.188,288.823 64.050,288.662 64.417 C 288.502 64.783,287.871 66.358,287.261 67.917 C 286.650 69.475,285.974 71.162,285.758 71.667 C 285.542 72.171,284.945 73.671,284.431 75.000 C 283.918 76.329,283.387 77.642,283.251 77.917 C 283.116 78.192,282.811 78.942,282.573 79.583 C 282.335 80.225,282.037 80.975,281.910 81.250 C 281.783 81.525,281.444 82.350,281.157 83.083 C 280.869 83.817,280.341 85.148,279.983 86.042 C 278.297 90.258,277.957 91.109,277.353 92.625 C 275.093 98.304,274.247 100.406,273.740 101.601 C 273.425 102.344,273.167 102.999,273.167 103.055 C 273.167 103.111,272.979 103.567,272.750 104.068 C 272.521 104.569,272.333 105.058,272.333 105.156 C 272.333 105.279,275.344 105.333,282.222 105.333 L 292.111 105.333 292.293 104.792 C 292.556 104.012,293.628 101.338,293.913 100.750 C 294.132 100.298,294.460 99.480,296.018 95.500 C 296.287 94.813,296.580 94.100,296.668 93.917 C 296.813 93.618,298.251 90.059,300.003 85.667 C 301.583 81.704,301.843 81.063,301.995 80.750 C 302.084 80.567,302.388 79.817,302.670 79.083 C 302.952 78.350,303.317 77.450,303.481 77.083 C 303.644 76.717,303.953 75.929,304.166 75.333 C 304.380 74.737,304.610 74.175,304.679 74.083 C 304.748 73.992,305.062 73.242,305.378 72.417 C 306.065 70.620,308.441 64.721,308.667 64.250 C 308.822 63.926,309.070 63.300,310.487 59.667 C 310.862 58.704,311.243 57.787,311.334 57.628 C 311.425 57.470,311.754 56.682,312.065 55.878 C 312.820 53.932,313.786 51.535,314.065 50.917 C 314.189 50.642,314.498 49.854,314.752 49.167 C 315.007 48.479,315.268 47.842,315.333 47.750 C 315.399 47.658,315.661 47.021,315.916 46.333 C 316.171 45.646,316.511 44.783,316.672 44.417 C 317.060 43.536,319.224 38.148,319.953 36.250 C 320.270 35.425,320.585 34.675,320.653 34.583 C 320.721 34.492,321.025 33.742,321.328 32.917 C 321.631 32.092,321.933 31.342,321.999 31.250 C 322.065 31.158,322.327 30.521,322.582 29.833 C 322.837 29.146,323.209 28.208,323.410 27.750 C 323.611 27.292,323.951 26.429,324.165 25.833 C 324.379 25.238,324.613 24.672,324.685 24.577 C 324.877 24.322,325.853 21.631,325.780 21.557 C 325.609 21.387,306.042 21.130,305.939 21.297 M202.583 44.661 C 196.970 45.306,191.830 46.898,187.083 49.462 C 185.371 50.387,183.789 51.321,183.667 51.479 C 183.621 51.538,183.246 51.805,182.833 52.073 C 182.156 52.512,181.714 52.843,179.850 54.305 C 177.339 56.275,173.750 60.040,171.562 63.000 C 170.887 63.913,169.598 65.815,168.795 67.083 C 167.080 69.791,165.057 73.994,163.902 77.250 C 163.674 77.892,163.419 78.541,163.336 78.692 C 163.252 78.844,162.848 80.194,162.437 81.692 C 159.636 91.901,161.226 99.410,167.070 103.580 C 173.220 107.969,185.098 108.391,195.571 104.592 C 196.480 104.263,197.305 103.927,197.404 103.847 C 197.503 103.767,198.064 103.500,198.651 103.254 C 200.415 102.515,206.040 99.119,206.500 98.515 C 206.546 98.454,206.808 98.233,207.083 98.022 C 208.445 96.980,209.277 96.224,211.513 94.000 C 212.849 92.671,214.255 91.171,214.637 90.667 C 215.020 90.162,215.805 89.130,216.382 88.372 C 220.203 83.351,224.086 75.198,225.489 69.250 C 225.683 68.425,225.916 67.487,226.005 67.167 C 228.379 58.670,225.023 49.697,218.390 46.810 C 217.947 46.617,217.263 46.316,216.872 46.141 C 216.246 45.860,215.163 45.588,211.667 44.833 C 210.560 44.593,204.213 44.473,202.583 44.661 M267.000 44.661 C 263.016 45.164,258.414 46.360,255.703 47.598 C 255.219 47.819,254.776 48.000,254.718 48.000 C 254.556 48.000,250.595 50.024,250.500 50.155 C 250.454 50.218,249.929 50.548,249.333 50.889 C 246.556 52.476,242.625 55.684,239.687 58.761 C 237.866 60.669,235.529 63.503,234.542 65.000 C 234.210 65.504,233.888 65.954,233.825 66.000 C 233.763 66.046,233.471 66.496,233.177 67.000 C 232.883 67.504,232.345 68.404,231.981 69.000 C 226.279 78.352,224.023 89.297,226.365 96.250 C 229.440 105.383,241.246 109.408,255.249 106.099 C 257.213 105.635,258.054 105.398,258.583 105.161 C 258.767 105.078,259.442 104.831,260.083 104.610 C 262.216 103.877,265.522 102.294,268.020 100.810 L 269.132 100.149 268.908 99.366 C 268.785 98.936,268.373 97.533,267.992 96.250 C 267.611 94.967,267.012 92.942,266.659 91.750 C 265.378 87.415,265.671 87.743,263.889 88.637 C 255.422 92.884,248.898 92.960,246.964 88.833 C 244.711 84.024,251.229 68.058,257.565 62.869 C 263.025 58.397,270.762 58.400,274.807 62.875 C 275.608 63.761,275.440 63.871,280.986 58.853 C 281.758 58.155,282.726 57.283,283.138 56.917 C 283.550 56.550,284.231 55.941,284.651 55.564 C 285.072 55.187,286.110 54.261,286.958 53.507 L 288.500 52.135 288.211 51.646 C 287.464 50.381,282.934 46.667,282.139 46.667 C 282.068 46.667,281.614 46.487,281.130 46.267 C 278.187 44.930,271.182 44.134,267.000 44.661 M377.417 44.599 C 375.051 44.836,369.850 45.807,369.083 46.155 C 368.900 46.238,368.147 46.493,367.410 46.722 C 365.278 47.383,360.530 49.613,359.889 50.254 C 359.753 50.389,359.579 50.500,359.500 50.500 C 359.153 50.500,355.871 53.130,354.461 54.537 C 351.706 57.288,350.311 59.357,348.587 63.250 C 347.498 65.708,346.979 69.437,347.419 71.640 C 348.065 74.872,350.070 77.614,353.076 79.376 C 354.307 80.098,357.125 81.358,358.380 81.747 C 359.134 81.981,359.900 82.245,360.083 82.334 C 360.267 82.422,361.070 82.722,361.868 83.000 C 367.348 84.906,368.418 86.172,367.004 89.075 C 364.075 95.086,352.499 94.790,346.130 88.540 L 345.178 87.605 344.130 88.418 C 342.039 90.043,341.114 90.758,340.574 91.167 C 340.272 91.396,339.625 91.897,339.137 92.281 C 338.649 92.664,337.529 93.527,336.647 94.197 C 335.765 94.868,334.308 95.979,333.409 96.667 C 332.510 97.354,331.700 97.967,331.609 98.027 C 331.219 98.288,333.503 100.814,335.417 102.241 C 337.642 103.900,340.823 105.378,343.500 105.998 C 344.371 106.200,345.308 106.428,345.583 106.506 C 348.615 107.364,357.637 107.312,361.667 106.414 C 364.859 105.702,366.451 105.315,366.750 105.178 C 366.933 105.093,367.608 104.858,368.250 104.655 C 368.892 104.453,369.717 104.153,370.083 103.990 C 370.450 103.826,371.313 103.453,372.000 103.159 C 372.688 102.866,373.332 102.561,373.432 102.482 C 373.532 102.402,374.057 102.101,374.598 101.812 C 388.296 94.517,394.177 77.837,385.083 72.075 C 384.808 71.900,384.546 71.708,384.500 71.648 C 384.153 71.191,379.642 69.222,376.917 68.338 C 376.275 68.130,375.525 67.862,375.250 67.742 C 374.975 67.622,374.150 67.289,373.417 67.002 C 368.184 64.954,367.127 62.651,370.249 60.093 C 372.555 58.203,380.070 57.955,383.135 59.667 C 383.290 59.754,383.904 60.039,384.500 60.302 C 385.660 60.814,387.801 62.143,388.157 62.572 C 388.546 63.040,388.517 63.061,392.000 59.667 C 392.423 59.254,393.927 57.829,395.342 56.500 C 400.838 51.339,400.339 52.079,399.145 50.859 C 396.555 48.215,392.471 46.113,388.410 45.334 C 387.406 45.141,386.283 44.909,385.917 44.818 C 385.236 44.648,378.625 44.479,377.417 44.599 M330.798 48.458 C 324.772 54.284,323.221 55.782,321.089 57.839 C 319.802 59.080,317.662 61.145,316.333 62.428 C 315.004 63.711,313.059 65.584,312.012 66.589 C 310.964 67.594,309.761 68.754,309.339 69.167 C 308.917 69.579,307.843 70.621,306.953 71.482 C 305.068 73.303,305.207 72.644,305.669 77.583 C 305.850 79.508,306.297 84.383,306.664 88.417 C 307.030 92.450,307.515 97.775,307.742 100.250 C 307.968 102.725,308.156 104.881,308.160 105.042 C 308.166 105.316,308.805 105.333,319.186 105.333 L 330.204 105.333 330.105 104.792 C 330.051 104.494,329.708 102.075,329.344 99.417 C 328.980 96.758,328.376 92.371,328.001 89.667 C 326.905 81.743,325.979 75.014,325.792 73.625 L 325.619 72.334 326.268 71.728 C 327.713 70.379,332.625 65.701,333.333 65.000 C 333.750 64.587,335.396 63.012,336.991 61.500 C 342.088 56.666,346.197 52.755,348.552 50.493 C 349.360 49.718,350.580 48.558,351.263 47.917 C 351.946 47.275,352.504 46.694,352.502 46.625 C 352.501 46.556,348.073 46.500,342.662 46.500 L 332.824 46.500 330.798 48.458 M203.045 59.173 C 204.815 59.622,206.167 61.749,206.167 64.085 C 206.167 65.297,205.073 70.533,204.653 71.333 C 204.581 71.470,204.321 72.183,204.075 72.917 C 203.830 73.650,203.528 74.475,203.406 74.750 C 203.283 75.025,202.954 75.833,202.675 76.545 C 201.623 79.228,198.773 84.727,197.834 85.884 C 197.746 85.994,197.233 86.646,196.695 87.333 C 194.370 90.308,191.873 92.016,189.010 92.593 C 183.507 93.702,180.638 90.744,181.806 85.167 C 182.358 82.528,183.880 77.765,184.814 75.750 C 184.984 75.383,185.181 74.896,185.253 74.667 C 185.392 74.219,187.046 70.635,187.368 70.083 C 187.475 69.900,187.783 69.337,188.054 68.833 C 188.324 68.329,188.760 67.603,189.022 67.220 C 189.285 66.837,189.500 66.483,189.500 66.433 C 189.500 66.269,191.462 63.764,192.196 62.991 C 195.398 59.616,199.335 58.231,203.045 59.173 " stroke="none" fill="#242424" fill-rule="evenodd"></path><path id="path2" d="" stroke="none" fill="#682880" fill-rule="evenodd"></path><path id="path3" d="" stroke="none" fill="#382854" fill-rule="evenodd"></path><path id="path4" d="" stroke="none" fill="#3c2824" fill-rule="evenodd"></path></g></svg>