<svg width="113" height="30" viewBox="0 0 113 30" fill="none" xmlns="http://www.w3.org/2000/svg">
<path d="M28.5804 29.9993C28.3777 29.9993 28.183 29.8867 28.0873 29.6925L16.9799 4.19871C16.0339 2.2847 14.1162 1.09429 11.9748 1.09429H8.11168C7.80868 1.09429 7.56311 0.849358 7.56311 0.547146C7.56311 0.244934 7.80868 0 8.11168 0H11.9748C14.5367 0 16.8314 1.42349 17.9642 3.71543L29.0722 29.2106C29.2055 29.4818 29.0927 29.8097 28.8207 29.9421C28.7435 29.9816 28.6616 29.9993 28.5804 29.9993Z" fill="white"/>
<path d="M26.3472 29.9993C26.1445 29.9993 25.9498 29.8867 25.8541 29.6925L14.7467 4.19871C13.8007 2.2847 11.883 1.09429 9.74222 1.09429H5.87847C5.57546 1.09429 5.3299 0.849358 5.3299 0.547146C5.3299 0.244934 5.57546 0 5.87847 0H9.74156C12.3035 0 14.5981 1.42349 15.7303 3.71543L26.8383 29.2106C26.9717 29.4818 26.8588 29.8097 26.5868 29.9421C26.5096 29.9816 26.4277 29.9993 26.3472 29.9993Z" fill="white"/>
<path d="M24.1133 29.9993C23.9106 29.9993 23.7159 29.8867 23.6202 29.6925L12.5128 4.19871C11.5668 2.2847 9.64914 1.09429 7.50833 1.09429H3.64458C3.34158 1.09429 3.09601 0.849358 3.09601 0.547146C3.09601 0.244934 3.34158 0 3.64458 0H7.50767C10.0696 0 12.3643 1.42349 13.4964 3.71543L24.6044 29.2106C24.7378 29.4818 24.6249 29.8097 24.3529 29.9421C24.2763 29.9816 24.1945 29.9993 24.1133 29.9993Z" fill="white"/>
<path d="M21.8801 29.9993C21.6774 29.9993 21.4827 29.8867 21.387 29.6925L10.2796 4.19871C9.3336 2.2847 7.41591 1.09429 5.27444 1.09429H2.78179C2.47878 1.09429 2.23322 0.849358 2.23322 0.547146C2.23322 0.244934 2.47878 0 2.78179 0H5.27444C7.83642 0 10.131 1.42349 11.2638 3.71543L22.3719 29.2106C22.5052 29.4818 22.3923 29.8097 22.1204 29.9421C22.0431 29.9816 21.9606 29.9993 21.8801 29.9993Z" fill="white"/>
<path d="M19.6462 29.9993C19.4435 29.9993 19.2488 29.8867 19.1531 29.6925L8.04569 4.19871C7.09972 2.2847 5.18203 1.09429 3.04123 1.09429H0.54857C0.245569 1.09429 0 0.849358 0 0.547146C0 0.244934 0.245569 0 0.54857 0H3.04123C5.6032 0 7.89782 1.42349 9.02994 3.71543L20.138 29.2106C20.2713 29.4818 20.1584 29.8097 19.8865 29.9421C19.8092 29.9816 19.7267 29.9993 19.6462 29.9993Z" fill="white"/>
<path d="M28.6253 29.9486C28.5441 29.9486 28.4609 29.9302 28.383 29.892C28.1117 29.7584 28.0002 29.4305 28.1342 29.1599L38.5405 8.13208C38.6567 7.89768 38.6441 7.63564 38.5055 7.41309C38.3669 7.19055 38.1371 7.06347 37.8744 7.06347H30.5291C30.2261 7.06347 29.9806 6.81854 29.9806 6.51632C29.9806 6.21411 30.2261 5.96918 30.5291 5.96918H37.8737C38.5141 5.96918 39.0976 6.29313 39.4356 6.835C39.7736 7.37754 39.8059 8.0432 39.5227 8.61536L29.1165 29.6431C29.0221 29.8367 28.8273 29.9486 28.6253 29.9486Z" fill="white"/>
<path d="M26.3921 29.9486C26.3109 29.9486 26.2277 29.9302 26.1498 29.892C25.8785 29.7584 25.7669 29.4305 25.9009 29.1599L36.3073 8.13208C36.4234 7.89768 36.4109 7.63498 36.2723 7.41309C36.1336 7.19121 35.9039 7.06347 35.6412 7.06347H24.9457C24.6427 7.06347 24.3972 6.81854 24.3972 6.51632C24.3972 6.21411 24.6427 5.96918 24.9457 5.96918H35.6405C36.2809 5.96918 36.8644 6.29313 37.2024 6.835C37.5404 7.37754 37.5727 8.0432 37.2895 8.61536L26.8832 29.6431C26.7882 29.8367 26.5941 29.9486 26.3921 29.9486Z" fill="white"/>
<path d="M24.1582 29.9486C24.077 29.9486 23.9938 29.9302 23.9159 29.892C23.6446 29.7584 23.533 29.4305 23.667 29.1599L34.0733 8.13208C34.1895 7.89768 34.1769 7.63564 34.0383 7.41309C33.8997 7.19055 33.67 7.06347 33.4072 7.06347H24.9457C24.6427 7.06347 24.3971 6.81854 24.3971 6.51632C24.3971 6.21411 24.6427 5.96918 24.9457 5.96918H33.4072C34.0476 5.96918 34.6311 6.29313 34.9691 6.835C35.3071 7.37754 35.3394 8.0432 35.0562 8.61536L24.65 29.6431C24.5549 29.8367 24.3602 29.9486 24.1582 29.9486Z" fill="white"/>
<path d="M21.9243 29.9486C21.8431 29.9486 21.76 29.9302 21.6821 29.892C21.4107 29.7584 21.2992 29.4305 21.4332 29.1599L31.8395 8.13208C31.9557 7.89768 31.9431 7.63564 31.8045 7.41309C31.6659 7.19055 31.4362 7.06347 31.1734 7.06347H24.9458C24.6428 7.06347 24.3972 6.81854 24.3972 6.51632C24.3972 6.21411 24.6428 5.96918 24.9458 5.96918H31.1734C31.8138 5.96918 32.3973 6.29313 32.7353 6.835C33.0733 7.37754 33.1056 8.0432 32.8224 8.61536L22.4161 29.6431C22.3211 29.8367 22.127 29.9486 21.9243 29.9486Z" fill="white"/>
<path d="M19.6911 29.9486C19.6099 29.9486 19.5267 29.9302 19.4488 29.892C19.1775 29.7584 19.0659 29.4305 19.1999 29.1599L29.6062 8.13208C29.7224 7.89768 29.7099 7.63498 29.5713 7.41309C29.4326 7.19121 29.2029 7.06347 28.9402 7.06347H24.9457C24.6427 7.06347 24.3971 6.81854 24.3971 6.51632C24.3971 6.21411 24.6427 5.96918 24.9457 5.96918H28.9402C29.5805 5.96918 30.1641 6.29313 30.502 6.835C30.84 7.37754 30.8724 8.0432 30.5892 8.61536L20.1829 29.6431C20.0871 29.8367 19.8931 29.9486 19.6911 29.9486Z" fill="white"/>
<path d="M35.3547 24.9822L44.4744 5.94678H49.8254L40.9229 24.7972C40.6859 25.3819 40.808 25.69 41.3638 25.69C41.6417 25.69 41.9137 25.6288 42.1236 25.5669L41.5711 29.4456C40.6621 29.784 39.464 30 38.1681 30C35.0814 29.9993 34.0456 28.2144 35.3547 24.9822Z" fill="white"/>
<path d="M62.6795 21.2576C60.5348 26.5519 56.0214 30 50.8981 30C45.8059 30 43.9423 26.8297 46.2119 21.2273C48.3566 15.933 52.87 12.4849 57.9932 12.4849C63.0848 12.4849 64.9484 15.6551 62.6795 21.2576ZM51.8593 21.2266C50.4625 24.6741 50.7476 26.0284 52.5062 26.0284C54.2655 26.0284 55.6848 24.5819 57.0314 21.2569C58.4157 17.8404 58.1431 16.4551 56.3838 16.4551C54.6252 16.4557 53.206 17.9023 51.8593 21.2266Z" fill="white"/>
<path d="M81.0015 14.5779L77.3899 17.7792C76.7264 16.9785 75.9072 16.6401 74.8576 16.6401C72.9135 16.6401 71.3035 17.8713 69.8947 21.3497C68.486 24.8281 69.3462 25.7519 71.1054 25.7519C72.1854 25.7519 73.1069 25.3825 74.548 24.6438L75.5527 28.03C73.5723 29.2612 71.4527 30 69.1072 30C63.8605 30 62.0907 26.5216 64.1734 21.3807C66.2805 16.1786 70.9866 12.4849 76.0478 12.4849C78.4857 12.4849 80.0073 13.2236 81.0015 14.5779Z" fill="white"/>
<path d="M82.0155 29.4456H76.5219L85.9637 5.94678L91.5049 6.02051L82.0155 29.4456ZM91.4224 20.2416L92.6938 29.4456H86.5829L85.767 20.4879L93.5064 13.0386H99L91.4224 20.2416Z" fill="white"/>
<path d="M112.339 14.547L109.142 17.5639C108.219 16.7942 107.018 16.3326 105.66 16.3326C104.487 16.3326 103.8 16.7329 103.563 17.3176C103.277 18.0254 103.461 18.3335 106.111 19.2566C108.916 20.1804 110.127 21.5348 108.929 24.4897C107.557 27.8759 103.488 30 99.1664 30C96.2961 30 94.1645 29.015 93.14 27.5066L96.9477 24.5826C97.7774 25.5063 99.0152 26.1832 100.559 26.1832C101.855 26.1832 102.801 25.7519 103.15 24.89C103.537 23.936 103.192 23.72 100.64 22.8582C97.8659 21.9344 96.9285 20.2107 97.9636 17.656C99.136 14.7623 102.589 12.4849 107.002 12.4849C109.409 12.4849 111.338 13.2848 112.339 14.547Z" fill="white"/>
</svg>
