<?xml version="1.0" standalone="no"?>
<!DOCTYPE svg PUBLIC "-//W3C//DTD SVG 20010904//EN"
 "http://www.w3.org/TR/2001/REC-SVG-20010904/DTD/svg10.dtd">
<svg version="1.0" xmlns="http://www.w3.org/2000/svg"
 width="500.000000pt" height="500.000000pt" viewBox="0 0 500.000000 500.000000"
 preserveAspectRatio="xMidYMid meet">

<g transform="translate(0.000000,500.000000) scale(0.100000,-0.100000)"
fill="#000000" stroke="none">
<path d="M2150 4704 c-8 -8 -27 -21 -44 -29 -17 -7 -385 -368 -818 -802 -876
-876 -822 -813 -758 -887 35 -39 71 -51 103 -35 12 6 366 355 787 775 l765
764 785 -726 c746 -691 785 -725 814 -720 17 3 46 22 64 41 39 42 42 83 10
118 -13 14 -360 337 -773 718 -412 381 -776 716 -807 746 -60 56 -102 69 -128
37z"/>
<path d="M3314 3126 c-17 -8 -34 -20 -37 -28 -3 -8 -8 -406 -12 -884 -8 -866
-8 -869 13 -894 17 -21 29 -25 77 -25 98 0 91 -47 98 637 10 828 9 1146 -3
1168 -10 18 -59 40 -89 40 -9 -1 -30 -7 -47 -14z"/>
<path d="M1074 3116 c-17 -8 -34 -20 -37 -28 -3 -8 -8 -406 -12 -884 -8 -866
-8 -869 13 -894 17 -21 29 -25 77 -25 98 0 91 -47 98 637 10 828 9 1146 -3
1168 -10 18 -59 40 -89 40 -9 -1 -30 -7 -47 -14z"/>
<path d="M2144 3106 c-17 -8 -34 -20 -37 -28 -3 -8 -8 -406 -12 -884 -8 -866
-8 -869 13 -894 17 -21 29 -25 77 -25 98 0 91 -47 98 637 10 828 9 1146 -3
1168 -10 18 -59 40 -89 40 -9 -1 -30 -7 -47 -14z"/>
</g>
</svg>
