<?xml version="1.0" standalone="no"?>
<!DOCTYPE svg PUBLIC "-//W3C//DTD SVG 20010904//EN"
 "http://www.w3.org/TR/2001/REC-SVG-20010904/DTD/svg10.dtd">
<svg version="1.0" xmlns="http://www.w3.org/2000/svg"
 width="500.000000pt" height="500.000000pt" viewBox="0 0 500.000000 500.000000"
 preserveAspectRatio="xMidYMid meet">

<g transform="translate(0.000000,500.000000) scale(0.100000,-0.100000)"
fill="#000000" stroke="none">
<path d="M429 4345 c-186 -60 -341 -218 -402 -410 l-22 -70 0 -1365 0 -1365
22 -70 c61 -193 213 -347 407 -413 l81 -27 1985 0 1985 0 81 27 c194 66 346
220 407 413 l22 70 0 1365 0 1365 -22 70 c-61 193 -217 351 -405 410 l-79 25
-1992 0 -1992 -1 -76 -24z m3938 -386 c76 -29 144 -97 169 -170 18 -52 19
-103 19 -1274 0 -1171 -1 -1222 -19 -1274 -25 -73 -93 -141 -169 -170 l-58
-21 -1809 0 -1809 0 -58 21 c-76 29 -144 97 -169 170 -18 52 -19 103 -19 1274
0 1171 1 1222 19 1274 25 72 93 141 167 169 l54 21 1812 0 1812 1 58 -21z"/>
<path d="M827 3731 c-100 -40 -166 -115 -193 -222 -12 -48 -15 -103 -12 -259
l3 -197 35 -69 c25 -49 49 -79 84 -105 84 -63 116 -69 400 -69 242 0 253 1
301 24 29 13 70 45 98 76 71 79 79 117 75 363 -3 197 -4 203 -30 253 -32 61
-138 162 -204 195 -47 23 -59 24 -279 26 -207 3 -235 1 -278 -16z"/>
</g>
</svg>
