<?xml version="1.0" standalone="no"?>
<!DOCTYPE svg PUBLIC "-//W3C//DTD SVG 20010904//EN"
 "http://www.w3.org/TR/2001/REC-SVG-20010904/DTD/svg10.dtd">
<svg version="1.0" xmlns="http://www.w3.org/2000/svg"
 width="500.000000pt" height="500.000000pt" viewBox="0 0 500.000000 500.000000"
 preserveAspectRatio="xMidYMid meet">

<g transform="translate(0.000000,500.000000) scale(0.100000,-0.100000)"
fill="#000000" stroke="none">
<path d="M429 4345 c-186 -60 -341 -218 -402 -410 l-22 -70 0 -1365 0 -1365
22 -70 c61 -193 213 -347 407 -413 l81 -27 1985 0 1985 0 81 27 c194 66 346
220 407 413 l22 70 0 1365 0 1365 -22 70 c-61 193 -217 351 -405 410 l-79 25
-1992 0 -1992 -1 -76 -24z m4038 -300 c99 -29 176 -109 207 -215 14 -48 16
-185 15 -1333 -1 -1404 2 -1333 -61 -1425 -16 -24 -48 -56 -71 -73 -87 -63 46
-59 -2077 -57 l-1935 3 -57 28 c-76 37 -133 103 -157 181 -18 58 -18 122 -20
1342 -1 1237 -1 1284 18 1343 31 101 105 176 204 207 34 10 412 13 1963 13
1674 1 1927 -1 1971 -14z"/>
<path d="M827 3731 c-100 -40 -166 -115 -193 -222 -12 -48 -15 -103 -12 -259
l3 -197 35 -69 c25 -49 49 -79 84 -105 81 -61 121 -69 352 -69 250 0 287 10
375 99 83 85 89 109 89 372 0 196 -2 224 -21 273 -25 67 -86 133 -154 166 -48
24 -59 25 -280 27 -207 3 -235 1 -278 -16z"/>
</g>
</svg>
