<?xml version="1.0" standalone="no"?>
<!DOCTYPE svg PUBLIC "-//W3C//DTD SVG 20010904//EN"
 "http://www.w3.org/TR/2001/REC-SVG-20010904/DTD/svg10.dtd">
<svg version="1.0" xmlns="http://www.w3.org/2000/svg"
 width="500.000000pt" height="500.000000pt" viewBox="0 0 500.000000 500.000000"
 preserveAspectRatio="xMidYMid meet">

<g transform="translate(0.000000,500.000000) scale(0.100000,-0.100000)"
fill="#000000" stroke="none">
<path d="M854 4095 c-155 -28 -271 -74 -399 -160 -232 -154 -391 -400 -440
-680 -22 -127 -22 -1381 0 -1506 72 -413 365 -727 775 -832 l85 -22 1625 0
1625 0 85 22 c361 92 634 348 743 698 44 140 47 199 47 894 0 712 -2 746 -55
901 -113 333 -369 572 -715 668 l-95 27 -1605 2 c-1274 1 -1620 -1 -1676 -12z
m3321 -303 c211 -71 365 -201 454 -384 79 -160 76 -127 76 -908 0 -779 3 -748
-74 -905 -93 -188 -251 -321 -461 -387 l-75 -23 -1595 0 -1595 0 -75 23 c-210
66 -368 199 -461 387 -77 157 -74 126 -74 905 0 779 -3 746 74 905 102 210
309 366 539 405 26 4 756 7 1622 6 l1575 -1 70 -23z"/>
<path d="M1133 3385 c-136 -30 -255 -121 -315 -242 -31 -63 -33 -74 -33 -168
0 -93 2 -105 32 -165 168 -341 698 -341 866 -1 30 61 32 73 32 166 0 93 -2
105 -32 166 -96 194 -321 294 -550 244z m235 -146 c72 -24 152 -90 185 -153
30 -57 30 -165 0 -221 -31 -58 -89 -110 -158 -142 -51 -23 -73 -27 -145 -27
-72 0 -94 4 -145 27 -69 32 -127 84 -158 142 -30 56 -30 164 0 221 74 140 260
208 421 153z"/>
</g>
</svg>
