<?xml version="1.0" standalone="no"?>
<!DOCTYPE svg PUBLIC "-//W3C//DTD SVG 20010904//EN"
 "http://www.w3.org/TR/2001/REC-SVG-20010904/DTD/svg10.dtd">
<svg version="1.0" xmlns="http://www.w3.org/2000/svg"
 width="500.000000pt" height="500.000000pt" viewBox="0 0 500.000000 500.000000"
 preserveAspectRatio="xMidYMid meet">

<g transform="translate(0.000000,500.000000) scale(0.100000,-0.100000)"
fill="#000000" stroke="none">
<path d="M2408 4977 c-66 -31 -2362 -2272 -2389 -2331 -70 -154 67 -339 229
-310 81 15 79 13 487 413 308 302 956 936 1423 1391 183 179 337 325 342 325
5 0 159 -146 342 -325 450 -439 1107 -1080 1418 -1385 310 -305 389 -379 416
-393 71 -37 171 -31 236 14 78 54 110 180 69 270 -27 60 -2322 2300 -2389
2331 -27 13 -66 23 -92 23 -26 0 -65 -10 -92 -23z"/>
<path d="M2362 2699 c-48 -14 -118 -88 -132 -138 -8 -30 -11 -362 -9 -1139 1
-1043 2 -1098 19 -1127 26 -42 80 -92 113 -104 41 -16 149 -13 190 4 45 19 92
75 106 129 9 30 11 339 9 1131 l-3 1090 -22 40 c-55 104 -158 146 -271 114z"/>
<path d="M1082 2649 c-48 -14 -118 -88 -132 -138 -8 -30 -11 -362 -9 -1139 1
-1043 2 -1098 19 -1127 26 -42 80 -92 113 -104 41 -16 149 -13 190 4 45 19 92
75 106 129 9 30 11 339 9 1131 l-3 1090 -22 40 c-55 104 -158 146 -271 114z"/>
<path d="M3672 2649 c-48 -14 -118 -88 -132 -138 -8 -30 -11 -362 -9 -1139 1
-1043 2 -1098 19 -1127 26 -42 80 -92 113 -104 41 -16 149 -13 190 4 45 19 92
75 106 129 9 30 11 339 9 1131 l-3 1090 -22 40 c-55 104 -158 146 -271 114z"/>
</g>
</svg>
