<svg width="15" height="19" viewBox="0 0 15 19" fill="none" xmlns="http://www.w3.org/2000/svg">
<path d="M5.71887 15.6792C6.14863 15.5887 8.76738 15.5887 9.19714 15.6792C9.56453 15.7638 9.96183 15.9613 9.96183 16.3925C9.94047 16.803 9.69867 17.167 9.3646 17.3981C8.93142 17.7345 8.42305 17.9475 7.89161 18.0243C7.5977 18.0622 7.30891 18.0631 7.02525 18.0243C6.49295 17.9475 5.98458 17.7345 5.55226 17.3973C5.21733 17.167 4.97553 16.803 4.95417 16.3925C4.95417 15.9613 5.35147 15.7638 5.71887 15.6792ZM7.50875 0.926392C9.29702 0.926392 11.1237 1.77161 12.2088 3.17398C12.9129 4.07699 13.2358 4.97913 13.2358 6.3815L13.2358 6.74632C13.2358 7.82182 13.5212 8.45573 14.1492 9.18624C14.6251 9.72442 14.7772 10.4153 14.7772 11.1647C14.7772 11.9134 14.5302 12.624 14.0355 13.201C13.3879 13.8927 12.4745 14.3343 11.5424 14.4111C10.1916 14.5258 8.83991 14.6224 7.47031 14.6224C6.09984 14.6224 4.74903 14.5646 3.39822 14.4111C2.46521 14.3343 1.55186 13.8927 0.905074 13.201C0.410375 12.624 0.162598 11.9134 0.162598 11.1647C0.162598 10.4153 0.315536 9.72442 0.790584 9.18624C1.43822 8.45573 1.70479 7.82182 1.70479 6.74632L1.70479 6.3815C1.70479 4.94118 2.06535 3.99936 2.80783 3.07739C3.91172 1.7328 5.68119 0.926392 7.43186 0.926392L7.50875 0.926392Z" fill="#800080"/>
</svg>
