<svg width="16" height="18" viewBox="0 0 16 18" fill="none" xmlns="http://www.w3.org/2000/svg">
<path fill-rule="evenodd" clip-rule="evenodd" d="M6.19173 16.0197C6.60093 16.4755 7.12627 16.7259 7.67135 16.7259L7.67214 16.7259C8.2196 16.7259 8.7473 16.4755 9.1573 16.0189C9.37691 15.7764 9.75136 15.7566 9.99388 15.9754C10.2372 16.1943 10.2569 16.5695 10.0381 16.812C9.39982 17.5206 8.56008 17.9109 7.67214 17.9109L7.67056 17.9109C6.785 17.9101 5.94683 17.5198 5.3109 16.8112C5.09208 16.5687 5.11183 16.1935 5.35514 15.9754C5.59845 15.7558 5.9729 15.7756 6.19173 16.0197ZM7.71069 0.926392C11.2221 0.926392 13.581 3.66129 13.581 6.21528C13.581 7.52901 13.9152 8.08595 14.2699 8.67685C14.6206 9.25985 15.018 9.92185 15.018 11.1732C14.7423 14.3702 11.4046 14.6309 7.71069 14.6309C4.01676 14.6309 0.678325 14.3702 0.405772 11.2237C0.403413 9.92185 0.800771 9.25985 1.15152 8.67685L1.27534 8.46842C1.58022 7.94443 1.84038 7.37446 1.84038 6.21528C1.84038 3.66129 4.19925 0.926392 7.71069 0.926392ZM7.71069 2.11136C4.94973 2.11136 3.02534 4.27431 3.02534 6.21528C3.02534 7.85764 2.56953 8.61681 2.16664 9.28671C1.84354 9.82469 1.58838 10.2497 1.58838 11.1732C1.7203 12.6631 2.70382 13.4459 7.71069 13.4459C12.6899 13.4459 13.7042 12.6283 13.8354 11.1218C13.833 10.2497 13.5778 9.82469 13.2547 9.28671C12.8519 8.61681 12.396 7.85764 12.396 6.21528C12.396 4.27431 10.4717 2.11136 7.71069 2.11136Z" fill="#748B9B"/>
</svg>
