<?xml version="1.0" encoding="UTF-8"?>
<svg width="700pt" height="700pt" version="1.1" viewBox="0 0 700 700" xmlns="http://www.w3.org/2000/svg">
 <path d="m186.67 93.332c-12.887 0-23.336 10.449-23.336 23.336v58.332c0 12.887-10.445 23.332-23.332 23.332s-23.332-10.445-23.332-23.332v-58.332c0-38.66 31.34-70 70-70h58.332c12.887 0 23.332 10.445 23.332 23.332s-10.445 23.332-23.332 23.332zm245-23.332c0-12.887 10.445-23.332 23.332-23.332h58.332c38.664 0 70 31.34 70 70v58.332c0 12.887-10.445 23.332-23.332 23.332s-23.332-10.445-23.332-23.332v-58.332c0-12.887-10.449-23.336-23.336-23.336h-58.332c-12.887 0-23.332-10.445-23.332-23.332zm-291.67 291.67c12.887 0 23.332 10.445 23.332 23.332v58.332c0 12.887 10.449 23.336 23.336 23.336h58.332c12.887 0 23.332 10.445 23.332 23.332s-10.445 23.332-23.332 23.332h-58.332c-38.66 0-70-31.336-70-70v-58.332c0-12.887 10.445-23.332 23.332-23.332zm420 0c12.887 0 23.332 10.445 23.332 23.332v58.332c0 38.664-31.336 70-70 70h-46.664c-12.887 0-23.336-10.445-23.336-23.332s10.449-23.332 23.336-23.332h46.664c12.887 0 23.336-10.449 23.336-23.336v-58.332c0-12.887 10.445-23.332 23.332-23.332z" fill-rule="evenodd"/>
</svg>
