<?xml version="1.0" encoding="UTF-8"?>
<svg width="700pt" height="700pt" version="1.1" viewBox="0 0 700 700" xmlns="http://www.w3.org/2000/svg">
 <path d="m87.5 0c-9.6641 0-17.5 7.8359-17.5 17.5v140c0 9.6641 7.8359 17.5 17.5 17.5s17.5-7.8359 17.5-17.5v-122.5h122.5c9.6641 0 17.5-7.8359 17.5-17.5s-7.8359-17.5-17.5-17.5zm0 560c-9.6641 0-17.5-7.8359-17.5-17.5v-140c0-9.6641 7.8359-17.5 17.5-17.5s17.5 7.8359 17.5 17.5v122.5h122.5c9.6641 0 17.5 7.8359 17.5 17.5s-7.8359 17.5-17.5 17.5zm542.5-542.5c0-9.6641-7.8359-17.5-17.5-17.5h-140c-9.6641 0-17.5 7.8359-17.5 17.5s7.8359 17.5 17.5 17.5h122.5v122.5c0 9.6641 7.8359 17.5 17.5 17.5s17.5-7.8359 17.5-17.5zm-17.5 542.5c9.6641 0 17.5-7.8359 17.5-17.5v-140c0-9.6641-7.8359-17.5-17.5-17.5s-17.5 7.8359-17.5 17.5v122.5h-122.5c-9.6641 0-17.5 7.8359-17.5 17.5s7.8359 17.5 17.5 17.5z" fill-rule="evenodd"/>
</svg>
