<svg width="21" height="24" viewBox="0 0 21 24" fill="none" xmlns="http://www.w3.org/2000/svg">
<g clip-path="url(#clip0_818_891)">
<path d="M17.2584 1.86811C16.1511 0.605962 14.1494 0.0648499 11.5886 0.0648499H4.15656C3.9032 0.0648592 3.65815 0.15525 3.46547 0.319772C3.27279 0.484294 3.14512 0.712153 3.10541 0.962386L0.0108381 20.5889C-0.0506719 20.9759 0.24901 21.3264 0.641275 21.3264H5.22957L6.38189 14.0174L6.34613 14.2463C6.42822 13.7297 6.87007 13.3486 7.3933 13.3486H9.57365C13.8569 13.3486 17.2108 11.6088 18.1905 6.57608C18.2196 6.42723 18.2448 6.28236 18.2666 6.14082C18.1429 6.07534 18.1429 6.07534 18.2666 6.14082C18.5583 4.28066 18.2646 3.01446 17.2584 1.86811Z" fill="#27346A"/>
<path d="M8.13754 5.47073C8.26298 5.411 8.40017 5.38005 8.5391 5.38013H14.3657C15.0557 5.38013 15.6992 5.42503 16.2873 5.51968C16.4519 5.54592 16.6156 5.57725 16.7782 5.61362C17.0087 5.66448 17.2365 5.72673 17.4608 5.80013C17.7499 5.89669 18.0192 6.00914 18.2667 6.14082C18.5583 4.27995 18.2646 3.01446 17.2584 1.86811C16.1504 0.605962 14.1494 0.0648499 11.5886 0.0648499H4.15592C3.63261 0.0648499 3.18742 0.44583 3.10541 0.962386L0.0108385 20.5882C-0.0506714 20.9758 0.249011 21.3258 0.64064 21.3258H5.22957L7.62027 6.1653C7.64378 6.01628 7.70314 5.87521 7.79324 5.75422C7.88335 5.63323 8.00151 5.53594 8.13754 5.47073Z" fill="#27346A"/>
<path d="M18.1905 6.57608C17.2108 11.6081 13.857 13.3486 9.57362 13.3486H7.39264C6.86941 13.3486 6.42747 13.7297 6.34617 14.2463L4.91261 23.3341C4.85905 23.6728 5.12098 23.9797 5.46366 23.9797H9.33147C9.55303 23.9797 9.7673 23.9006 9.93575 23.7566C10.1042 23.6127 10.2158 23.4134 10.2504 23.1946L10.2881 22.9975L11.017 18.3774L11.064 18.1221C11.0986 17.9032 11.2102 17.7039 11.3786 17.56C11.547 17.4161 11.7613 17.337 11.9828 17.3369H12.5617C16.3085 17.3369 19.2423 15.8147 20.0996 11.4124C20.4575 9.57266 20.2723 8.03666 19.3256 6.95778C19.0385 6.631 18.6819 6.36111 18.2665 6.14082C18.2441 6.28308 18.2197 6.42723 18.1905 6.57608Z" fill="#2790C3"/>
<path d="M17.2412 5.73203C17.0884 5.68742 16.9342 5.64793 16.7788 5.61362C16.6161 5.57784 16.4524 5.54673 16.2879 5.52032C15.6992 5.42503 15.0561 5.38005 14.3655 5.38005H8.53966C8.40062 5.37974 8.26332 5.41096 8.1381 5.47136C8.00191 5.53638 7.88362 5.6336 7.79347 5.75463C7.70333 5.87566 7.64404 6.01683 7.62074 6.16593L6.38244 14.0174L6.34668 14.2463C6.42814 13.7297 6.86999 13.3486 7.3933 13.3486H9.57428C13.8576 13.3486 17.2114 11.6088 18.1911 6.57608C18.2202 6.42723 18.2447 6.28299 18.2672 6.14082C18.0191 6.00985 17.7506 5.89669 17.4614 5.80077C17.3884 5.77658 17.315 5.75366 17.2412 5.73203" fill="#1F264F"/>
</g>
<defs>
<clipPath id="clip0_818_891">
<rect width="20.3444" height="24" fill="white"/>
</clipPath>
</defs>
</svg>
