<svg width="40" height="40" viewBox="0 0 40 40" fill="none" xmlns="http://www.w3.org/2000/svg">
<circle opacity="0.1" cx="20" cy="20" r="20" fill="#800080"/>
<path d="M20.5372 10.0996L26.7842 12.3265C27.4834 12.5746 27.9563 13.2571 27.96 14.022L27.9998 20.6626C28.0122 22.6758 27.3214 24.6282 26.0565 26.1579C25.4747 26.8601 24.729 27.4631 23.7767 28.0025L20.4187 29.9097C20.3136 29.9686 20.198 29.999 20.0814 30C19.9649 30.0009 19.8483 29.9715 19.7441 29.9137L16.3548 28.0505C15.3922 27.52 14.6398 26.9258 14.0524 26.2335C12.7666 24.7194 12.0522 22.7758 12.0398 20.7597L12 14.124C11.9963 13.3581 12.4605 12.6707 13.156 12.4128L19.3793 10.1064C19.7488 9.96718 20.161 9.96424 20.5372 10.0996Z" fill="#800080"/>
</svg>
