<?xml version="1.0" encoding="utf-8"?>
<!-- Generator: Adobe Illustrator 19.0.0, SVG Export Plug-In . SVG Version: 6.00 Build 0)  -->
<svg version="1.1" id="Layer_1" xmlns="http://www.w3.org/2000/svg" xmlns:xlink="http://www.w3.org/1999/xlink" x="0px" y="0px"
	 viewBox="0 0 512 512" style="enable-background:new 0 0 512 512;" xml:space="preserve">
<g id="XMLID_1_">
	<path id="XMLID_7_" d="M155.5,19.8H83.3c-45.5,0-82.5,36.9-82.5,82.5v72.2c0,9.4,7.7,17.2,17.2,17.2s17.2-7.7,17.2-17.2v-73
		c0-11.2,5.2-23.2,14.6-32.6c9.4-9.4,21.5-14.6,32.6-14.6h73.9c9.4,0,17.2-7.7,17.2-17.2C172.7,27.5,164.9,19.8,155.5,19.8z
		 M430.4,19.8h-73.9c-9.4,0-17.2,7.7-17.2,17.2s7.7,17.2,17.2,17.2h73.9c11.2,0,23.2,5.2,32.6,14.6c9.4,9.4,14.6,20.6,14.6,32.6
		v73.9c0,9.4,7.7,17.2,17.2,17.2s17.2-7.7,17.2-17.2v-73.9C512,56.7,475.1,19.8,430.4,19.8z M155.5,457.9H81.6
		c-11.2,0-23.2-5.2-32.6-14.6c-9.4-9.4-14.6-20.6-14.6-32.6v-73.9c0-9.4-7.7-17.2-17.2-17.2S0,327.3,0,336.8v73.9
		c0,44.7,36.9,81.6,81.6,81.6h73.9c9.4,0,17.2-7.7,17.2-17.2S164.9,457.9,155.5,457.9z M494.8,319.6c-9.4,0-17.2,7.7-17.2,17.2v73.9
		c0,11.2-5.2,23.2-14.6,32.6c-9.4,9.4-21.5,14.6-32.6,14.6h-73.9c-9.4,0-17.2,7.7-17.2,17.2s7.7,17.2,17.2,17.2h72.2
		c45.5,0,82.5-36.9,82.5-82.5v-72.2C512,328.2,504.3,319.6,494.8,319.6z"/>
</g>
</svg>
