<svg width="40" height="40" viewBox="0 0 40 40" fill="none" xmlns="http://www.w3.org/2000/svg">
<circle opacity="0.1" cx="20" cy="20" r="20" fill="#800080"/>
<path d="M20.5639 9.89478C21.2903 9.89478 21.948 10.2982 22.3112 10.8937C22.4879 11.1819 22.6057 11.5373 22.5762 11.9119C22.5566 12.2 22.6449 12.4882 22.802 12.7571C23.3026 13.5736 24.4119 13.881 25.2757 13.4199C26.2475 12.8628 27.4745 13.199 28.034 14.1499L28.6917 15.2833C29.261 16.2342 28.9469 17.4541 27.9653 18.0016C27.1309 18.4915 26.8364 19.5769 27.3371 20.4029C27.4941 20.6623 27.6708 20.8832 27.9457 21.0177C28.2892 21.2002 28.5543 21.4883 28.7408 21.7765C29.104 22.372 29.0745 23.102 28.7212 23.7456L28.034 24.8982C27.6708 25.5129 26.9935 25.8971 26.2966 25.8971C25.953 25.8971 25.5702 25.8011 25.256 25.609C25.0008 25.4457 24.7063 25.3881 24.3922 25.3881C23.4204 25.3881 22.6057 26.1853 22.5762 27.1362C22.5762 28.2408 21.6731 29.1053 20.5443 29.1053H19.2093C18.0706 29.1053 17.1675 28.2408 17.1675 27.1362C17.1479 26.1853 16.3331 25.3881 15.3613 25.3881C15.0374 25.3881 14.7429 25.4457 14.4975 25.609C14.1834 25.8011 13.7908 25.8971 13.457 25.8971C12.7502 25.8971 12.0729 25.5129 11.7097 24.8982L11.0324 23.7456C10.6692 23.1212 10.6496 22.372 11.0128 21.7765C11.1698 21.4883 11.4643 21.2002 11.7981 21.0177C12.0729 20.8832 12.2496 20.6623 12.4165 20.4029C12.9073 19.5769 12.6128 18.4915 11.7784 18.0016C10.8066 17.4541 10.4925 16.2342 11.052 15.2833L11.7097 14.1499C12.2791 13.199 13.4963 12.8628 14.4779 13.4199C15.3319 13.881 16.4411 13.5736 16.9417 12.7571C17.0988 12.4882 17.1872 12.2 17.1675 11.9119C17.1479 11.5373 17.2559 11.1819 17.4424 10.8937C17.8056 10.2982 18.4633 9.91399 19.1798 9.89478H20.5639ZM19.8866 16.7914C18.3455 16.7914 17.0988 18.0016 17.0988 19.5096C17.0988 21.0177 18.3455 22.2183 19.8866 22.2183C21.4277 22.2183 22.6449 21.0177 22.6449 19.5096C22.6449 18.0016 21.4277 16.7914 19.8866 16.7914Z" fill="#800080"/>
</svg>
