<svg width="23" height="23" viewBox="0 0 23 23" fill="none" xmlns="http://www.w3.org/2000/svg">
<path fill-rule="evenodd" clip-rule="evenodd" d="M11.6426 0.0046386C8.59016 0.00464374 8.20681 0.0180026 7.00755 0.0725776C5.81041 0.127397 4.99326 0.316924 4.27825 0.595005C3.53865 0.882223 2.91126 1.26643 2.28621 1.8917C1.6607 2.51674 1.27649 3.14412 0.988331 3.88348C0.709545 4.59872 0.519782 5.41609 0.465899 6.61276C0.41225 7.81223 0.398193 8.19573 0.398193 11.2497C0.398193 14.3037 0.411781 14.6858 0.466133 15.8853C0.521188 17.0824 0.710716 17.8995 0.988566 18.6145C1.27602 19.3541 1.66023 19.9815 2.28551 20.6065C2.91032 21.232 3.53771 21.6172 4.27685 21.9044C4.99232 22.1825 5.80971 22.372 7.00662 22.4268C8.2061 22.4814 8.58914 22.4948 11.6429 22.4948C14.6972 22.4948 15.0793 22.4814 16.2787 22.4268C17.4759 22.372 18.294 22.1825 19.0094 21.9044C19.7488 21.6172 20.3753 21.232 21.0001 20.6065C21.6256 19.9815 22.0098 19.3541 22.298 18.6148C22.5744 17.8995 22.7642 17.0821 22.8204 15.8855C22.8743 14.686 22.8883 14.3037 22.8883 11.2497C22.8883 8.19573 22.8743 7.81246 22.8204 6.61299C22.7642 5.41586 22.5744 4.59872 22.298 3.88372C22.0098 3.14412 21.6256 2.51674 21.0001 1.8917C20.3746 1.26619 19.7491 0.881988 19.0087 0.595005C18.2919 0.316923 17.4742 0.127397 16.2771 0.0725775C15.0778 0.0180026 14.6959 0.0046437 11.6426 0.0046386ZM10.6355 2.03109C10.8314 2.03078 11.0421 2.03088 11.2695 2.03098C11.3897 2.03103 11.5146 2.03109 11.6443 2.03109C14.6468 2.03109 15.0026 2.04187 16.1883 2.09575C17.2847 2.14588 17.8798 2.32908 18.2762 2.483C18.8009 2.68682 19.1751 2.93046 19.5684 3.32404C19.962 3.71762 20.2057 4.09245 20.4099 4.61722C20.5639 5.01314 20.7473 5.60819 20.7972 6.70459C20.8511 7.89 20.8628 8.2461 20.8628 11.2471C20.8628 14.2482 20.8511 14.6042 20.7972 15.7897C20.7471 16.8861 20.5639 17.4811 20.4099 17.877C20.2061 18.4018 19.962 18.7755 19.5684 19.1688C19.1748 19.5624 18.8012 19.806 18.2762 20.0098C17.8802 20.1645 17.2847 20.3472 16.1883 20.3973C15.0029 20.4512 14.6468 20.4629 11.6443 20.4629C8.64162 20.4629 8.28576 20.4512 7.10033 20.3973C6.00392 20.3467 5.40886 20.1635 5.01223 20.0096C4.48746 19.8058 4.11262 19.5622 3.71904 19.1686C3.32546 18.775 3.08181 18.4011 2.87752 17.8761C2.72361 17.4802 2.54017 16.8851 2.49027 15.7887C2.43638 14.6033 2.42561 14.2472 2.42561 11.2443C2.42561 8.24141 2.43638 7.88719 2.49027 6.70177C2.5404 5.60538 2.72361 5.01033 2.87752 4.61394C3.08134 4.08917 3.32546 3.71434 3.71904 3.32076C4.11262 2.92718 4.48746 2.68354 5.01223 2.47925C5.40863 2.32463 6.00392 2.1419 7.10033 2.09153C8.13769 2.04468 8.53971 2.03062 10.6355 2.02828L10.6355 2.03109ZM16.2975 5.2472C16.2975 4.50198 16.9019 3.89827 17.6469 3.89827C18.3919 3.89827 18.9963 4.50222 18.9963 5.2472C18.9963 5.99219 18.3919 6.59661 17.6469 6.59661C16.9019 6.59661 16.2975 5.99219 16.2975 5.2472ZM11.6442 5.47489C8.45507 5.47496 5.86945 8.06059 5.86945 11.2497C5.86945 14.4388 8.45514 17.0233 11.6443 17.0233C14.8335 17.0233 17.4183 14.4388 17.4183 11.2497C17.4183 8.06059 14.8333 5.47496 11.6442 5.47489ZM15.3927 11.2497C15.3927 9.17944 13.7144 7.50135 11.6443 7.50135C9.57403 7.50135 7.89592 9.17944 7.89592 11.2497C7.89592 13.3197 9.57403 14.9981 11.6443 14.9981C13.7144 14.9981 15.3927 13.3197 15.3927 11.2497Z" fill="white"/>
</svg>
