<svg width="20" height="20" viewBox="0 0 20 20" fill="none" xmlns="http://www.w3.org/2000/svg">
<g clip-path="url(#clip0_909_97)">
<path d="M14.8191 6.49645C16.128 6.49645 17.1891 5.4354 17.1891 4.12652C17.1891 2.81765 16.128 1.75659 14.8191 1.75659C13.5103 1.75659 12.4492 2.81765 12.4492 4.12652C12.4492 5.4354 13.5103 6.49645 14.8191 6.49645Z" stroke="#212224" stroke-width="1.57995" stroke-linecap="round" stroke-linejoin="round"/>
<path d="M5.33941 12.0263C6.64829 12.0263 7.70934 10.9652 7.70934 9.65637C7.70934 8.34749 6.64829 7.28644 5.33941 7.28644C4.03054 7.28644 2.96948 8.34749 2.96948 9.65637C2.96948 10.9652 4.03054 12.0263 5.33941 12.0263Z" stroke="#212224" stroke-width="1.57995" stroke-linecap="round" stroke-linejoin="round"/>
<path d="M14.8191 17.5561C16.128 17.5561 17.1891 16.4951 17.1891 15.1862C17.1891 13.8773 16.128 12.8163 14.8191 12.8163C13.5103 12.8163 12.4492 13.8773 12.4492 15.1862C12.4492 16.4951 13.5103 17.5561 14.8191 17.5561Z" stroke="#212224" stroke-width="1.57995" stroke-linecap="round" stroke-linejoin="round"/>
<path d="M7.38525 10.8492L12.7808 13.9933" stroke="#212224" stroke-width="1.57995" stroke-linecap="round" stroke-linejoin="round"/>
<path d="M12.7729 5.3194L7.38525 8.4635" stroke="#212224" stroke-width="1.57995" stroke-linecap="round" stroke-linejoin="round"/>
</g>
<defs>
<clipPath id="clip0_909_97">
<rect width="18.9594" height="18.9594" fill="white" transform="translate(0.599365 0.176636)"/>
</clipPath>
</defs>
</svg>
