<svg width="37" height="37" viewBox="0 0 37 37" fill="none" xmlns="http://www.w3.org/2000/svg">
<circle cx="18.679" cy="18.2497" r="17.7745" fill="#35A8FF"/>
<path d="M28.5539 11.8251C27.8143 12.1477 27.0299 12.3593 26.2267 12.4532C27.0633 11.9596 27.7057 11.1779 28.0082 10.2465C27.2129 10.7111 26.3427 11.0385 25.4353 11.2144C24.6962 10.4393 23.6432 9.95483 22.4777 9.95483C20.24 9.95483 18.4258 11.7407 18.4258 13.9433C18.4258 14.256 18.4617 14.5604 18.5307 14.8524C15.1633 14.686 12.1777 13.0981 10.1793 10.6849C9.83056 11.274 9.63076 11.9593 9.63076 12.6901C9.63076 14.074 10.3461 15.2947 11.4333 16.01C10.7898 15.9902 10.1606 15.8191 9.59797 15.5111C9.59774 15.5278 9.59774 15.5445 9.59774 15.5613C9.59774 17.4938 10.9944 19.1059 12.8479 19.4723C12.2512 19.6321 11.6254 19.6554 11.0182 19.5407C11.5337 21.1253 13.0301 22.2784 14.8031 22.3107C13.4164 23.3804 11.6693 24.0181 9.77101 24.0181C9.44391 24.0181 9.12144 23.9992 8.80444 23.9623C10.5976 25.094 12.7273 25.7544 15.0155 25.7544C22.4683 25.7544 26.5437 19.6766 26.5437 14.4059C26.5437 14.2329 26.5399 14.0609 26.532 13.8899C27.3252 13.3254 28.0099 12.6262 28.5539 11.8251" fill="white"/>
</svg>
