<?xml version="1.0" encoding="utf-8"?>
<!-- Svg Vector Icons : http://www.onlinewebfonts.com/icon -->
<!DOCTYPE svg PUBLIC "-//W3C//DTD SVG 1.1//EN" "http://www.w3.org/Graphics/SVG/1.1/DTD/svg11.dtd">
<svg version="1.1" xmlns="http://www.w3.org/2000/svg" xmlns:xlink="http://www.w3.org/1999/xlink" x="0px" y="0px" viewBox="0 0 1000 1000" enable-background="new 0 0 1000 1000" xml:space="preserve">
<metadata> Svg Vector Icons : http://www.onlinewebfonts.com/icon </metadata>
<g><path d="M952.1,907.2L889.9,845l60.7-60.7c4.8-4.8,4.7-12.7-0.2-17.7l-23.3-23.3c-4.9-4.9-12.8-5-17.7-0.2l-60.7,60.7l-62.2-62.2c-4.9-5-12.9-5-17.7-0.2l-22.7,22.7c-4.8,4.8-4.8,12.7,0.2,17.7l62.2,62.2l-60.7,60.7c-4.8,4.8-4.7,12.7,0.2,17.7l23.3,23.3c5,4.9,12.9,5,17.7,0.2l60.7-60.7l62.2,62.2c5,4.9,12.8,5,17.7,0.2l22.7-22.7C957.1,920,957,912.1,952.1,907.2"/><path d="M720.5,604.3c-33.9-23.1-71.3-41.4-111.2-54.1c91.8-47.7,154.5-143.5,154.5-254C763.8,138.1,635.7,10,477.6,10c-158.1,0-286.2,128.1-286.2,286.2c0,110.6,62.7,206.4,154.5,254C171.6,605.8,45.3,768.5,44.2,960.9c0,0.2,0.1,2.5,0.1,2.5c1,14.8,13.2,26.6,28.3,26.6c15.1,0,27.6-11.8,28.5-26.6c0-207.9,168.6-376.5,376.5-376.5c77.9,0,150.3,23.7,210.3,64.2l0.1-0.2c4.7,3.5,10.5,5.6,16.7,5.6c15.7,0,28.5-12.8,28.5-28.5C733.2,618.1,728.2,609.4,720.5,604.3 M248.6,296.2c0-126.5,102.5-229,229-229c126.5,0,229,102.5,229,229c0,126.5-102.5,229-229,229C351.1,525.2,248.6,422.7,248.6,296.2"/></g>
</svg>