<?xml version="1.0" standalone="no"?>
<!DOCTYPE svg PUBLIC "-//W3C//DTD SVG 20010904//EN"
 "http://www.w3.org/TR/2001/REC-SVG-20010904/DTD/svg10.dtd">
<svg version="1.0" xmlns="http://www.w3.org/2000/svg"
 width="500.000000pt" height="500.000000pt" viewBox="0 0 500.000000 500.000000"
 preserveAspectRatio="xMidYMid meet">

<g transform="translate(0.000000,500.000000) scale(0.100000,-0.100000)"
fill="#000000" stroke="none">
<path d="M4570 3685 c-389 -86 -559 -136 -905 -270 -132 -51 -265 -102 -295
-113 -47 -17 -55 -24 -52 -43 4 -34 46 -84 88 -104 60 -28 116 -15 379 89 132
52 260 100 285 105 215 51 403 90 411 85 5 -3 -246 -265 -558 -582 -1079
-1095 -1120 -1135 -1355 -1292 -132 -87 -252 -142 -315 -144 -38 -1 -48 4 -92
48 -149 147 -232 481 -217 876 6 178 17 279 67 635 39 283 43 415 14 465 -44
74 -211 129 -301 100 -40 -13 -188 -116 -323 -224 -245 -198 -542 -500 -711
-726 -35 -47 -66 -87 -69 -90 -19 -17 -269 -395 -327 -494 -128 -220 -264
-520 -264 -583 0 -38 21 -55 89 -73 74 -20 84 -12 121 92 33 97 151 341 235
488 129 225 322 492 515 715 135 155 396 416 535 536 117 101 283 219 308 219
26 0 22 -50 -18 -267 -108 -592 -121 -883 -54 -1218 24 -117 72 -250 120 -332
72 -124 206 -221 350 -257 185 -46 332 1 634 202 123 83 188 134 283 227 68
66 129 123 136 127 7 4 189 188 406 410 695 712 852 868 870 868 16 0 15 -9
-11 -102 -93 -333 -131 -623 -93 -704 16 -33 88 -104 106 -104 4 0 8 9 8 20 0
26 16 26 23 0 9 -34 25 -22 30 23 21 160 77 425 106 502 12 29 24 71 80 267
56 195 95 302 147 396 38 69 41 90 20 131 -19 37 -90 99 -132 117 -49 21 -101
16 -274 -21z"/>
</g>
</svg>
