<svg width="17" height="17" viewBox="0 0 17 17" fill="none" xmlns="http://www.w3.org/2000/svg">
<path d="M2.22088 0.301628L2.59682 0.180429L2.50855 -0.0933598L2.22088 -0.0933598L2.22088 0.301628ZM3.804 5.21212L3.42806 5.33332L3.80626 6.50642L4.18035 5.332L3.804 5.21212ZM5.36815 0.301628L5.36815 -0.0933599L5.07942 -0.0933599L4.99179 0.181746L5.36815 0.301628ZM7.00814 0.301628L7.37938 0.436529L7.57193 -0.0933599L7.00814 -0.0933599L7.00814 0.301628ZM4.56237 7.03223L4.56237 7.42721L4.8391 7.42721L4.93361 7.16713L4.56237 7.03223ZM3.03614 7.03223L2.66524 7.16805L2.76014 7.42721L3.03614 7.42721L3.03614 7.03223ZM0.571414 0.301628L0.571414 -0.0933598L0.0061316 -0.0933598L0.200513 0.437451L0.571414 0.301628ZM1.84495 0.422827L3.42806 5.33332L4.17993 5.09092L2.59682 0.180429L1.84495 0.422827ZM4.18035 5.332L5.74451 0.42151L4.99179 0.181746L3.42764 5.09224L4.18035 5.332ZM5.36815 0.696616L7.00814 0.696616L7.00814 -0.0933599L5.36815 -0.0933599L5.36815 0.696616ZM6.6369 0.166728L4.19114 6.89733L4.93361 7.16713L7.37938 0.436529L6.6369 0.166728ZM4.56237 6.63724L3.03614 6.63724L3.03614 7.42721L4.56237 7.42721L4.56237 6.63724ZM3.40704 6.8964L0.942316 0.165805L0.200513 0.437451L2.66524 7.16805L3.40704 6.8964ZM0.571414 0.696616L2.22088 0.696616L2.22088 -0.0933598L0.571414 -0.0933598L0.571414 0.696616ZM7.88496 0.112034L7.88496 -0.282954L7.48998 -0.282954L7.48998 0.112034L7.88496 0.112034ZM9.40172 0.112034L9.79671 0.112034L9.79671 -0.282954L9.40172 -0.282954L9.40172 0.112034ZM9.51548 5.70507L9.21558 5.96212L9.21558 5.96212L9.51548 5.70507ZM10.1222 5.79986L10.224 6.18151L10.232 6.17936L10.24 6.17687L10.1222 5.79986ZM10.3876 5.69559L10.7767 5.6275L10.6853 5.10514L10.211 5.3423L10.3876 5.69559ZM10.5867 6.83315L10.7537 7.19108L11.0279 7.06312L10.9758 6.76506L10.5867 6.83315ZM9.93258 7.04171L10.012 7.42864L9.93258 7.04171ZM8.23571 6.77627L7.95631 7.05567L7.96406 7.06302L8.23571 6.77627ZM7.88496 0.507022L9.40172 0.507022L9.40172 -0.282954L7.88496 -0.282954L7.88496 0.507022ZM9.00673 0.112034L9.00673 5.25952L9.79671 5.25952L9.79671 0.112034L9.00673 0.112034ZM9.00673 5.25952C9.00673 5.49563 9.04569 5.76392 9.21558 5.96212L9.81537 5.44801C9.82735 5.46198 9.82137 5.46288 9.81287 5.42961C9.80439 5.3964 9.79671 5.3418 9.79671 5.25952L9.00673 5.25952ZM9.21558 5.96212C9.38105 6.15517 9.60793 6.23277 9.83779 6.23277L9.83779 5.44279C9.80993 5.44279 9.80094 5.43838 9.80332 5.43937C9.80447 5.43984 9.80697 5.44106 9.80994 5.44321C9.81291 5.44536 9.81474 5.44728 9.81537 5.44801L9.21558 5.96212ZM9.83779 6.23277C9.96813 6.23277 10.0971 6.21534 10.224 6.18151L10.0204 5.41821C9.95764 5.43495 9.89704 5.44279 9.83779 5.44279L9.83779 6.23277ZM10.24 6.17687C10.3566 6.14044 10.4655 6.09826 10.5643 6.04887L10.211 5.3423C10.1581 5.36875 10.09 5.39609 10.0044 5.42286L10.24 6.17687ZM9.99853 5.76367L10.1976 6.90124L10.9758 6.76506L10.7767 5.6275L9.99853 5.76367ZM10.4196 6.47522C10.263 6.54832 10.0753 6.60922 9.85321 6.65477L10.012 7.42864C10.2828 7.37308 10.5312 7.29494 10.7537 7.19108L10.4196 6.47522ZM9.85321 6.65477C9.62855 6.70086 9.42471 6.72256 9.24056 6.72256L9.24056 7.51253C9.48616 7.51253 9.74367 7.48367 10.012 7.42864L9.85321 6.65477ZM9.24056 6.72256C8.88063 6.72256 8.65423 6.62867 8.50737 6.48953L7.96406 7.06302C8.2975 7.37891 8.74101 7.51253 9.24056 7.51253L9.24056 6.72256ZM8.51501 6.49698C8.3745 6.35646 8.27995 6.13983 8.27995 5.79038L7.48998 5.79038C7.48998 6.28779 7.62926 6.72842 7.95642 7.05557L8.51501 6.49698ZM8.27995 5.79038L8.27995 0.112034L7.48998 0.112034L7.48998 5.79038L8.27995 5.79038ZM12.7066 6.91847L12.5527 7.28225L12.5552 7.28328L12.7066 6.91847ZM11.8724 6.34969L11.5857 6.62134L11.8724 6.34969ZM11.351 5.52495L10.9802 5.66117L10.9827 5.66775L11.351 5.52495ZM11.351 3.56265L10.9827 3.41983L10.9802 3.42645L11.351 3.56265ZM11.8724 2.73792L12.1591 3.00957L12.1591 3.00957L11.8724 2.73792ZM12.7066 2.16913L12.5552 1.80432L12.5527 1.80536L12.7066 2.16913ZM14.9723 2.16913L14.8184 2.5329L14.9723 2.16913ZM15.8065 2.73792L15.5197 3.00957L15.5197 3.00957L15.8065 2.73792ZM16.3279 3.56265L16.6961 3.41985L16.3279 3.56265ZM16.3279 5.52495L15.9596 5.38215L16.3279 5.52495ZM15.8065 6.34969L15.5197 6.07804L15.8065 6.34969ZM14.9723 6.91847L15.1262 7.28224L14.9723 6.91847ZM12.8772 5.23108L12.5216 5.40318L12.5263 5.41224L12.8772 5.23108ZM13.2754 5.68611L13.0592 6.0167L13.0592 6.0167L13.2754 5.68611ZM14.4035 5.68611L14.6196 6.01671L14.6226 6.01476L14.4035 5.68611ZM14.8016 5.2216L14.4461 5.04956L14.4461 5.04956L14.8016 5.2216ZM14.8016 3.866L14.4461 4.03804L14.4461 4.03804L14.8016 3.866ZM14.4035 3.41097L14.1873 3.74162L14.193 3.74523L14.4035 3.41097ZM13.2754 3.41097L13.0592 3.08038L13.0592 3.08038L13.2754 3.41097ZM12.8772 3.866L12.5261 3.68478L12.5217 3.69396L12.8772 3.866ZM13.8442 6.73204C13.4641 6.73204 13.1376 6.66972 12.858 6.55366L12.5552 7.28328C12.9455 7.44529 13.3774 7.52201 13.8442 7.52201L13.8442 6.73204ZM12.8605 6.5547C12.578 6.43519 12.3463 6.27562 12.1591 6.07804L11.5857 6.62134C11.8535 6.90406 12.1779 7.12367 12.5527 7.28224L12.8605 6.5547ZM12.1591 6.07804C11.9671 5.87528 11.8209 5.64418 11.7193 5.38215L10.9827 5.66775C11.1213 6.02506 11.3227 6.34378 11.5857 6.62134L12.1591 6.07804ZM11.7218 5.38875C11.6246 5.1242 11.5754 4.84496 11.5754 4.54854L10.7854 4.54854C10.7854 4.93466 10.8499 5.30636 10.9802 5.66115L11.7218 5.38875ZM11.5754 4.54854C11.5754 4.24491 11.6249 3.9626 11.7218 3.69885L10.9802 3.42645C10.8496 3.78204 10.7854 4.157 10.7854 4.54854L11.5754 4.54854ZM11.7193 3.70545C11.8209 3.44342 11.9671 3.21232 12.1591 3.00957L11.5857 2.46626C11.3227 2.74382 11.1213 3.06254 10.9827 3.41985L11.7193 3.70545ZM12.1591 3.00957C12.3463 2.81198 12.578 2.65241 12.8605 2.5329L12.5527 1.80536C12.1779 1.96393 11.8535 2.18354 11.5857 2.46626L12.1591 3.00957ZM12.858 2.53394C13.1376 2.41788 13.4641 2.35557 13.8442 2.35557L13.8442 1.56559C13.3774 1.56559 12.9455 1.64232 12.5552 1.80432L12.858 2.53394ZM13.8442 2.35557C14.2244 2.35557 14.5466 2.41794 14.8184 2.5329L15.1262 1.80536C14.7406 1.64225 14.3108 1.56559 13.8442 1.56559L13.8442 2.35557ZM14.8184 2.5329C15.1008 2.65241 15.3325 2.81198 15.5197 3.00957L16.0932 2.46626C15.8254 2.18354 15.501 1.96393 15.1262 1.80536L14.8184 2.5329ZM15.5197 3.00957C15.7118 3.21232 15.858 3.44342 15.9596 3.70545L16.6961 3.41985C16.5576 3.06254 16.3562 2.74382 16.0932 2.46626L15.5197 3.00957ZM15.9596 3.70545C16.0612 3.96748 16.113 4.24749 16.113 4.54854L16.903 4.54854C16.903 4.15441 16.8347 3.77716 16.6961 3.41985L15.9596 3.70545ZM16.113 4.54854C16.113 4.84234 16.0615 5.11928 15.9596 5.38215L16.6961 5.66775C16.8344 5.31128 16.903 4.93728 16.903 4.54854L16.113 4.54854ZM15.9596 5.38215C15.858 5.64418 15.7118 5.87528 15.5197 6.07804L16.0932 6.62134C16.3562 6.34378 16.5576 6.02506 16.6961 5.66775L15.9596 5.38215ZM15.5197 6.07804C15.3325 6.27562 15.1008 6.43519 14.8184 6.5547L15.1262 7.28224C15.501 7.12367 15.8254 6.90406 16.0932 6.62134L15.5197 6.07804ZM14.8184 6.5547C14.5466 6.66966 14.2244 6.73204 13.8442 6.73204L13.8442 7.52201C14.3108 7.52201 14.7406 7.44535 15.1262 7.28224L14.8184 6.5547ZM12.3401 4.54854C12.3401 4.856 12.3965 5.1443 12.5217 5.40312L13.2328 5.05904C13.1684 4.92604 13.13 4.7593 13.13 4.54854L12.3401 4.54854ZM12.5263 5.41224C12.6547 5.66117 12.8311 5.86751 13.0592 6.0167L13.4916 5.35551C13.3911 5.28983 13.302 5.19282 13.2282 5.04992L12.5263 5.41224ZM13.0592 6.0167C13.2939 6.1701 13.5601 6.24225 13.8442 6.24225L13.8442 5.45227C13.6985 5.45227 13.5856 5.41698 13.4915 5.35551L13.0592 6.0167ZM13.8442 6.24225C14.1245 6.24225 14.387 6.16882 14.6196 6.0167L14.1873 5.35551C14.0913 5.41827 13.981 5.45227 13.8442 5.45227L13.8442 6.24225ZM14.6226 6.01476C14.8555 5.85949 15.0336 5.64896 15.1572 5.39364L14.4461 5.04956C14.38 5.18607 14.2927 5.28521 14.1844 5.35746L14.6226 6.01476ZM15.1572 5.39364C15.2818 5.13607 15.3388 4.85132 15.3388 4.54854L14.5488 4.54854C14.5488 4.75134 14.511 4.9153 14.4461 5.04956L15.1572 5.39364ZM15.3388 4.54854C15.3388 4.24108 15.2824 3.95279 15.1572 3.69396L14.4461 4.03804C14.5104 4.17105 14.5488 4.33778 14.5488 4.54854L15.3388 4.54854ZM15.1572 3.69396C15.0328 3.43695 14.8521 3.22671 14.6139 3.07672L14.193 3.74523C14.2961 3.81012 14.3808 3.90322 14.4461 4.03804L15.1572 3.69396ZM14.6196 3.08038C14.387 2.92826 14.1245 2.85483 13.8442 2.85483L13.8442 3.64481C13.981 3.64481 14.0913 3.67881 14.1873 3.74157L14.6196 3.08038ZM13.8442 2.85483C13.5601 2.85483 13.2939 2.92698 13.0592 3.08038L13.4915 3.74157C13.5856 3.6801 13.6985 3.64481 13.8442 3.64481L13.8442 2.85483ZM13.0592 3.08038C12.8311 3.22957 12.6547 3.43591 12.5263 3.68484L13.2282 4.04716C13.302 3.90426 13.3911 3.80726 13.4916 3.74157L13.0592 3.08038ZM12.5217 3.69396C12.3965 3.95279 12.3401 4.24108 12.3401 4.54854L13.13 4.54854C13.13 4.33778 13.1684 4.17105 13.2328 4.03804L12.5217 3.69396ZM2.37256 15.9185L2.21866 16.2822L2.37256 15.9185ZM1.52887 15.3497L1.2421 15.6214L1.24587 15.6252L1.52887 15.3497ZM1.00748 14.525L1.37575 14.3822H1.37575L1.00748 14.525ZM1.1402 12.2688L0.79384 12.0788L0.791523 12.0832L1.1402 12.2688ZM2.05973 11.3208L2.26374 11.659L2.26374 11.659L2.05973 11.3208ZM4.94156 11.3303L4.73121 11.6647L4.73756 11.6685L4.94156 11.3303ZM5.83266 12.2783L5.9466 12.6565L6.39571 12.5211L6.18595 12.1016L5.83266 12.2783ZM4.35382 12.7238L4.01887 12.9331L4.17881 13.1891L4.46776 13.102L4.35382 12.7238ZM3.98411 12.3731L3.78972 12.717L3.79599 12.7204L3.98411 12.3731ZM2.92238 12.411L2.7119 12.0767L2.70623 12.0804L2.92238 12.411ZM2.52424 12.8565L2.1756 12.6706L2.17095 12.6799L2.52424 12.8565ZM2.93186 14.6861L2.70695 15.011L2.71571 15.0167L2.93186 14.6861ZM3.84192 14.7904L3.97344 15.163L3.98508 15.1585L3.84192 14.7904ZM4.14527 14.6103L3.89838 14.3017L3.88821 14.3104L4.14527 14.6103ZM4.3633 14.3543L4.47946 13.9768L4.16809 13.881L4.01478 14.1684L4.3633 14.3543ZM5.84214 14.8093L6.19892 14.9788L6.39493 14.5662L5.9583 14.4318L5.84214 14.8093ZM5.32075 15.4919L5.58264 15.7876L5.58317 15.7871L5.32075 15.4919ZM4.53394 15.9564L4.39525 15.5865L4.53394 15.9564ZM3.50065 15.732C3.12039 15.732 2.7982 15.6697 2.52646 15.5547L2.21866 16.2822C2.60418 16.4453 3.03404 16.522 3.50065 16.522L3.50065 15.732ZM2.52646 15.5547C2.24314 15.4348 2.00664 15.2742 1.81186 15.0741L1.24587 15.6252C1.51875 15.9055 1.84472 16.124 2.21866 16.2822L2.52646 15.5547ZM1.81561 15.078C1.62353 14.8753 1.47736 14.6442 1.37575 14.3822L0.63921 14.6678C0.777759 15.0251 0.979178 15.3438 1.24212 15.6213L1.81561 15.078ZM1.37575 14.3822C1.27415 14.1201 1.22235 13.8401 1.22235 13.5391L0.432379 13.5391C0.432379 13.9332 0.500661 14.3104 0.63921 14.6678L1.37575 14.3822ZM1.22235 13.5391C1.22235 13.1471 1.31151 12.7876 1.48887 12.4544L0.791523 12.0832C0.551775 12.5336 0.432379 13.021 0.432379 13.5391L1.22235 13.5391ZM1.48653 12.4587C1.66649 12.1305 1.92277 11.8647 2.26374 11.659L1.85572 10.9826C1.4004 11.2572 1.04365 11.6234 0.793867 12.0789L1.48653 12.4587ZM2.26374 11.659C2.58855 11.4631 2.99497 11.3556 3.50065 11.3556L3.50065 10.5656C2.88139 10.5656 2.32721 10.6982 1.85572 10.9826L2.26374 11.659ZM3.50065 11.3556C4.01206 11.3556 4.41543 11.466 4.73125 11.6646L5.15188 10.9959C4.68404 10.7017 4.1268 10.5656 3.50065 10.5656L3.50065 11.3556ZM4.73756 11.6685C5.07576 11.8725 5.319 12.1342 5.47937 12.4549L6.18595 12.1016C5.95449 11.6387 5.60366 11.2684 5.14557 10.9921L4.73756 11.6685ZM5.71871 11.9001L4.23988 12.3456L4.46776 13.102L5.9466 12.6565L5.71871 11.9001ZM4.68877 12.5145C4.55917 12.3071 4.38623 12.1417 4.17224 12.0257L3.79599 12.7204C3.88535 12.7688 3.95887 12.8372 4.01887 12.9331L4.68877 12.5145ZM4.17847 12.0292C3.96815 11.9103 3.73573 11.8548 3.49117 11.8548L3.49117 12.6448C3.61316 12.6448 3.70936 12.6715 3.78976 12.7169L4.17847 12.0292ZM3.49117 11.8548C3.21083 11.8548 2.94782 11.9282 2.71193 12.0767L3.13284 12.7452C3.23821 12.6789 3.3544 12.6448 3.49117 12.6448L3.49117 11.8548ZM2.70623 12.0804C2.48118 12.2275 2.30506 12.4281 2.17572 12.6706L2.87275 13.0424C2.94564 12.9057 3.03495 12.8093 3.13854 12.7416L2.70623 12.0804ZM2.17095 12.6799C2.04269 12.9364 1.98705 13.2274 1.98705 13.5391L2.77703 13.5391C2.77703 13.3198 2.81619 13.1558 2.87752 13.0332L2.17095 12.6799ZM1.98705 13.5391C1.98705 13.8502 2.04803 14.1418 2.18272 14.4028L2.88471 14.0404C2.81717 13.9096 2.77703 13.7462 2.77703 13.5391L1.98705 13.5391ZM2.18272 14.4028C2.31038 14.6501 2.48422 14.8566 2.70703 15.0109L3.15669 14.3614C3.05088 14.2881 2.95928 14.1849 2.88471 14.0404L2.18272 14.4028ZM2.71571 15.0167C2.94836 15.1688 3.21085 15.2423 3.49117 15.2423L3.49117 14.4523C3.35437 14.4523 3.244 14.4183 3.14802 14.3555L2.71571 15.0167ZM3.49117 15.2423C3.65747 15.2423 3.81935 15.2172 3.97338 15.1629L3.71046 14.4179C3.64961 14.4394 3.57765 14.4523 3.49117 14.4523L3.49117 15.2423ZM3.98508 15.1585C4.13839 15.0989 4.27842 15.0164 4.40232 14.9102L3.88821 14.3104C3.83516 14.3558 3.77296 14.3934 3.69875 14.4223L3.98508 15.1585ZM4.39201 14.9187C4.52327 14.8137 4.63293 14.6881 4.71182 14.5402L4.01478 14.1684C3.99255 14.2101 3.95686 14.2552 3.89852 14.3018L4.39201 14.9187ZM4.24714 14.7318L5.72598 15.1869L5.9583 14.4318L4.47946 13.9768L4.24714 14.7318ZM5.48535 14.6399C5.38991 14.8408 5.24978 15.0265 5.05834 15.1967L5.58317 15.7871C5.84675 15.5528 6.05421 15.2835 6.19892 14.9788L5.48535 14.6399ZM5.05886 15.1962C4.87719 15.3571 4.65771 15.4881 4.39525 15.5865L4.67263 16.3262C5.01687 16.1971 5.32193 16.0185 5.58264 15.7876L5.05886 15.1962ZM4.39525 15.5865C4.14378 15.6808 3.84757 15.732 3.50065 15.732L3.50065 16.522C3.92474 16.522 4.31739 16.4594 4.67263 16.3262L4.39525 15.5865ZM10.269 16.0322L9.93815 16.248L10.055 16.4272L10.269 16.4272L10.269 16.0322ZM8.97025 14.0415L9.30106 13.8257L9.0327 13.4143L8.68849 13.7647L8.97025 14.0415ZM8.43938 14.5818L8.15762 14.305L8.04439 14.4203L8.04439 14.5818L8.43938 14.5818ZM8.43938 16.0322L8.43938 16.4272L8.83437 16.4272L8.83437 16.0322L8.43938 16.0322ZM6.92263 16.0322L6.52764 16.0322L6.52764 16.4272L6.92263 16.4272L6.92263 16.0322ZM6.92263 9.11203L6.92263 8.71705L6.52764 8.71705L6.52764 9.11203L6.92263 9.11203ZM8.43938 9.11203L8.83437 9.11203L8.83437 8.71705L8.43938 8.71705L8.43938 9.11203ZM8.43938 13.1125L8.04439 13.1125L8.04439 14.2168L8.74477 13.363L8.43938 13.1125ZM10.1268 11.0554L10.1268 10.6604L9.9399 10.6604L9.82138 10.8049L10.1268 11.0554ZM11.7288 11.0554L12.0318 11.3088L12.5741 10.6604L11.7288 10.6604L11.7288 11.0554ZM9.93718 13.1978L9.63418 12.9444L9.44205 13.1741L9.6114 13.4211L9.93718 13.1978ZM11.8805 16.0322L11.8805 16.4272L12.6302 16.4272L12.2063 15.8089L11.8805 16.0322ZM10.5998 15.8164L9.30106 13.8257L8.63943 14.2573L9.93815 16.248L10.5998 15.8164ZM8.68849 13.7647L8.15762 14.305L8.72114 14.8586L9.252 14.3183L8.68849 13.7647ZM8.04439 14.5818L8.04439 16.0322L8.83437 16.0322L8.83437 14.5818L8.04439 14.5818ZM8.43938 15.6372L6.92263 15.6372L6.92263 16.4272L8.43938 16.4272L8.43938 15.6372ZM7.31761 16.0322L7.31761 9.11203L6.52764 9.11203L6.52764 16.0322L7.31761 16.0322ZM6.92263 9.50702L8.43938 9.50702L8.43938 8.71705L6.92263 8.71705L6.92263 9.50702ZM8.04439 9.11203L8.04439 13.1125L8.83437 13.1125L8.83437 9.11203L8.04439 9.11203ZM8.74477 13.363L10.4322 11.3059L9.82138 10.8049L8.13399 12.862L8.74477 13.363ZM10.1268 11.4504L11.7288 11.4504L11.7288 10.6604L10.1268 10.6604L10.1268 11.4504ZM11.4258 10.802L9.63418 12.9444L10.2402 13.4512L12.0318 11.3088L11.4258 10.802ZM9.6114 13.4211L11.5547 16.2556L12.2063 15.8089L10.2629 12.9744L9.6114 13.4211ZM11.8805 15.6372L10.269 15.6372L10.269 16.4272L11.8805 16.4272L11.8805 15.6372ZM13.332 15.9185L13.2036 16.292L13.332 15.9185ZM12.3082 15.3023L11.9614 15.1134L11.8184 15.3759L12.0322 15.5848L12.3082 15.3023ZM12.8296 14.3448L13.0623 14.0257L12.6982 13.7602L12.4827 14.1559L12.8296 14.3448ZM13.7112 14.8473L13.5645 15.214L13.5673 15.2151L13.7112 14.8473ZM14.9815 14.9231L15.1818 15.2636L14.9815 14.9231ZM15.0479 14.4112L14.7836 14.7048L14.7922 14.7125L14.8011 14.7196L15.0479 14.4112ZM14.754 14.2595L14.6235 14.6324L14.6291 14.6342L14.754 14.2595ZM14.28 14.1173L14.1551 14.492L14.1666 14.4959L14.1782 14.499L14.28 14.1173ZM13.332 13.7476L13.1626 14.1044L13.332 13.7476ZM12.7633 13.3115L12.4418 13.5412L12.4459 13.5467L12.7633 13.3115ZM12.8201 11.7569L12.4928 11.5359L12.4915 11.5378L12.8201 11.7569ZM13.5406 11.1691L13.7024 11.5295L13.5406 11.1691ZM15.6451 11.1217L15.5202 11.4965L15.5224 11.4972L15.6451 11.1217ZM16.5646 11.6621L16.9003 11.8702L17.0755 11.5877L16.827 11.3669L16.5646 11.6621ZM15.9769 12.61L15.7528 12.9353L16.0942 13.1705L16.3126 12.8182L15.9769 12.61ZM15.2185 12.1835L15.0718 12.5502L15.2185 12.1835ZM14.28 12.0887L14.3885 12.4685L14.28 12.0887ZM14.062 12.2214L13.7684 11.9571L13.7668 11.959L14.062 12.2214ZM14.062 12.6764L13.7668 12.9388L13.7745 12.9475L13.7827 12.9557L14.062 12.6764ZM14.3179 12.8281L14.1748 13.1962L14.1867 13.2009L14.199 13.2047L14.3179 12.8281ZM14.7635 12.9703L14.6426 13.3465L14.6527 13.3494L14.7635 12.9703ZM15.7873 13.34L15.6207 13.6982L15.6277 13.7013L15.7873 13.34ZM16.394 13.795L16.0741 14.0267L16.0786 14.033L16.0834 14.039L16.394 13.795ZM16.0527 15.7004L16.2975 16.0105L16.2982 16.0099L16.0527 15.7004ZM14.5739 15.732C14.1946 15.732 13.824 15.6699 13.4605 15.5449L13.2036 16.292C13.649 16.4451 14.1063 16.522 14.5739 16.522L14.5739 15.732ZM13.4605 15.5449C13.1057 15.423 12.8165 15.2467 12.5843 15.0198L12.0322 15.5848C12.3561 15.9014 12.7494 16.1359 13.2036 16.292L13.4605 15.5449ZM12.6551 15.4912L13.1765 14.5337L12.4827 14.1559L11.9614 15.1134L12.6551 15.4912ZM12.5969 14.664C12.9211 14.9004 13.2437 15.0856 13.5645 15.214L13.8579 14.4805C13.61 14.3814 13.3448 14.2317 13.0623 14.0257L12.5969 14.664ZM13.5673 15.2151C13.8935 15.3427 14.2144 15.4129 14.5265 15.4129L14.5265 14.6229C14.333 14.6229 14.1104 14.5793 13.8552 14.4794L13.5673 15.2151ZM14.5265 15.4129C14.7562 15.4129 14.9884 15.3773 15.1818 15.2636L14.7813 14.5826C14.7598 14.5953 14.6886 14.6229 14.5265 14.6229L14.5265 15.4129ZM15.1818 15.2636C15.4191 15.124 15.5377 14.8909 15.5377 14.6292L14.7477 14.6292C14.7477 14.6417 14.7455 14.6316 14.7561 14.6123C14.761 14.6033 14.7669 14.5957 14.7727 14.5899C14.7783 14.5843 14.782 14.5822 14.7813 14.5826L15.1818 15.2636ZM15.5377 14.6292C15.5377 14.4375 15.4681 14.2416 15.2946 14.1028L14.8011 14.7196C14.7836 14.7056 14.7671 14.685 14.7567 14.6611C14.7471 14.639 14.7477 14.6256 14.7477 14.6292L15.5377 14.6292ZM15.3121 14.1176C15.1907 14.0083 15.0341 13.9365 14.8789 13.8848L14.6291 14.6342C14.681 14.6515 14.719 14.6678 14.7459 14.6816C14.759 14.6884 14.7685 14.6941 14.7749 14.6984C14.7813 14.7026 14.7838 14.7049 14.7836 14.7048L15.3121 14.1176ZM14.8845 13.8867C14.7454 13.838 14.5771 13.7877 14.3818 13.7357L14.1782 14.499C14.3622 14.548 14.5098 14.5925 14.6235 14.6323L14.8845 13.8867ZM14.4049 13.7426C14.0351 13.6193 13.7352 13.5018 13.5015 13.3908L13.1626 14.1044C13.4345 14.2336 13.7666 14.3625 14.1551 14.492L14.4049 13.7426ZM13.5015 13.3908C13.2893 13.29 13.1582 13.1811 13.0807 13.0764L12.4459 13.5467C12.6212 13.7833 12.8692 13.965 13.1626 14.1044L13.5015 13.3908ZM13.0847 13.082C13.018 12.9886 12.9687 12.8477 12.9687 12.629L12.1787 12.629C12.1787 12.9664 12.2558 13.2806 12.4419 13.5411L13.0847 13.082ZM12.9687 12.629C12.9687 12.3615 13.0332 12.1493 13.1488 11.976L12.4915 11.5378C12.2784 11.8574 12.1787 12.2266 12.1787 12.629L12.9687 12.629ZM13.1475 11.9779C13.2725 11.7928 13.452 11.6419 13.7024 11.5295L13.3788 10.8088C13.0099 10.9745 12.7091 11.2154 12.4928 11.5359L13.1475 11.9779ZM13.7024 11.5295C13.9496 11.4185 14.2614 11.3556 14.6497 11.3556L14.6497 10.5656C14.1785 10.5656 13.751 10.6417 13.3788 10.8088L13.7024 11.5295ZM14.6497 11.3556C14.9487 11.3556 15.2383 11.4025 15.5202 11.4965L15.77 10.747C15.4072 10.6261 15.0333 10.5656 14.6497 10.5656L14.6497 11.3556ZM15.5224 11.4972C15.7944 11.5861 16.0543 11.7369 16.3022 11.9573L16.827 11.3669C16.5062 11.0817 16.153 10.8722 15.7678 10.7463L15.5224 11.4972ZM16.2289 11.4539L15.6412 12.4019L16.3126 12.8182L16.9003 11.8702L16.2289 11.4539ZM16.201 12.2848C15.9022 12.0789 15.6228 11.9198 15.3652 11.8167L15.0718 12.5502C15.2566 12.6241 15.4828 12.7493 15.7528 12.9353L16.201 12.2848ZM15.3652 11.8167C15.1039 11.7122 14.8393 11.6558 14.5739 11.6558L14.5739 12.4457C14.7256 12.4457 14.8907 12.4778 15.0718 12.5502L15.3652 11.8167ZM14.5739 11.6558C14.4357 11.6558 14.3006 11.672 14.1715 11.7089L14.3885 12.4685C14.4364 12.4548 14.4972 12.4457 14.5739 12.4457L14.5739 11.6558ZM14.1715 11.7089C14.0178 11.7528 13.879 11.8343 13.7684 11.9571L14.3556 12.4856C14.3588 12.4821 14.3653 12.4751 14.3885 12.4685L14.1715 11.7089ZM13.7668 11.959C13.6372 12.1047 13.5912 12.2821 13.5912 12.4489L14.3811 12.4489C14.3811 12.4363 14.3828 12.4368 14.3798 12.4458C14.3764 12.456 14.3692 12.4703 14.3572 12.4838L13.7668 11.959ZM13.5912 12.4489C13.5912 12.6157 13.6372 12.7931 13.7668 12.9388L14.3572 12.414C14.3692 12.4275 14.3764 12.4417 14.3798 12.452C14.3828 12.461 14.3811 12.4615 14.3811 12.4489L13.5912 12.4489ZM13.7827 12.9557C13.893 13.0661 14.0339 13.1414 14.1748 13.1962L14.4611 12.46C14.42 12.444 14.3904 12.4293 14.37 12.4172C14.36 12.4112 14.3529 12.4063 14.3481 12.4027C14.3457 12.401 14.344 12.3996 14.3429 12.3986C14.3424 12.3981 14.342 12.3977 14.3417 12.3975C14.3414 12.3972 14.3413 12.3971 14.3413 12.3971L13.7827 12.9557ZM14.199 13.2047C14.3182 13.2424 14.466 13.2896 14.6426 13.3463L14.8844 12.5942C14.707 12.5372 14.5578 12.4896 14.4369 12.4514L14.199 13.2047ZM14.6527 13.3494C15.0517 13.466 15.3728 13.5828 15.6207 13.6981L15.9539 12.9818C15.6583 12.8444 15.2968 12.7147 14.8743 12.5912L14.6527 13.3494ZM15.6277 13.7013C15.8549 13.8017 15.9933 13.9151 16.0741 14.0267L16.7139 13.5633C16.5293 13.3084 16.2632 13.1184 15.9469 12.9787L15.6277 13.7013ZM16.0834 14.039C16.1525 14.127 16.2076 14.2691 16.2076 14.506L16.9975 14.506C16.9975 14.1488 16.9136 13.817 16.7046 13.551L16.0834 14.039ZM16.2076 14.506C16.2076 14.9022 16.0709 15.1819 15.8073 15.391L16.2982 16.0099C16.7676 15.6376 16.9975 15.121 16.9975 14.506L16.2076 14.506ZM15.808 15.3904C15.539 15.6028 15.1427 15.732 14.5739 15.732L14.5739 16.522C15.2564 16.522 15.846 16.3669 16.2975 16.0105L15.808 15.3904Z" fill="#748B9B"/>
</svg>
