<svg width="200" height="54" viewBox="0 0 200 54" fill="none" xmlns="http://www.w3.org/2000/svg">
<path d="M51.0183 53.2606C50.6585 53.2606 50.3127 53.0607 50.1428 52.7159L30.4228 7.45436C28.7434 4.05624 25.3387 1.9428 21.5368 1.9428H14.6782C14.1403 1.9428 13.7043 1.50795 13.7043 0.9714C13.7043 0.434854 14.1403 0 14.6782 0H21.5368C26.0853 0 30.1591 2.52725 32.1703 6.59635L51.8914 51.8602C52.1282 52.3418 51.9278 52.924 51.4449 53.1589C51.3078 53.2291 51.1624 53.2606 51.0183 53.2606Z" fill="white"/>
<path d="M47.0534 53.2606C46.6936 53.2606 46.3479 53.0607 46.1779 52.7159L26.458 7.45436C24.7785 4.05624 21.3739 1.9428 17.5731 1.9428H10.7134C10.1755 1.9428 9.73947 1.50795 9.73947 0.9714C9.73947 0.434854 10.1755 0 10.7134 0H17.5719C22.1204 0 26.1943 2.52725 28.2042 6.59635L47.9254 51.8602C48.1621 52.3418 47.9617 52.924 47.4789 53.1589C47.3417 53.2291 47.1964 53.2606 47.0534 53.2606Z" fill="white"/>
<path d="M43.0874 53.2606C42.7276 53.2606 42.3819 53.0607 42.2119 52.7159L22.492 7.45436C20.8125 4.05624 17.4079 1.9428 13.6071 1.9428H6.74739C6.20945 1.9428 5.77347 1.50795 5.77347 0.9714C5.77347 0.434854 6.20945 0 6.74739 0H13.6059C18.1544 0 22.2283 2.52725 24.2382 6.59635L43.9594 51.8602C44.1961 52.3418 43.9957 52.924 43.5129 53.1589C43.3769 53.2291 43.2316 53.2606 43.0874 53.2606Z" fill="white"/>
<path d="M39.1226 53.2606C38.7628 53.2606 38.417 53.0607 38.2471 52.7159L18.5271 7.45436C16.8476 4.05624 13.443 1.9428 9.64105 1.9428H5.2156C4.67765 1.9428 4.24167 1.50795 4.24167 0.9714C4.24167 0.434854 4.67765 0 5.2156 0H9.64105C14.1896 0 18.2634 2.52725 20.2746 6.59635L39.9957 51.8602C40.2324 52.3418 40.032 52.924 39.5492 53.1589C39.4121 53.2291 39.2656 53.2606 39.1226 53.2606Z" fill="white"/>
<path d="M35.1565 53.2606C34.7967 53.2606 34.451 53.0607 34.281 52.7159L14.5611 7.45436C12.8816 4.05624 9.47695 1.9428 5.67617 1.9428H1.25072C0.712776 1.9428 0.276794 1.50795 0.276794 0.9714C0.276794 0.434854 0.712776 0 1.25072 0H5.67617C10.2247 0 14.2985 2.52725 16.3085 6.59635L36.0296 51.8602C36.2664 52.3418 36.066 52.924 35.5831 53.1589C35.446 53.2291 35.2995 53.2606 35.1565 53.2606Z" fill="white"/>
<path d="M51.0979 53.1706C50.9538 53.1706 50.8061 53.1379 50.6678 53.0701C50.1861 52.8328 49.9881 52.2507 50.226 51.7702L68.7013 14.4376C68.9075 14.0215 68.8853 13.5562 68.6391 13.1611C68.393 12.766 67.9852 12.5404 67.5187 12.5404H54.478C53.94 12.5404 53.504 12.1056 53.504 11.569C53.504 11.0325 53.94 10.5976 54.478 10.5976H67.5175C68.6544 10.5976 69.6904 11.1728 70.2905 12.1348C70.8905 13.098 70.948 14.2798 70.4452 15.2956L51.9699 52.6282C51.8023 52.9719 51.4566 53.1706 51.0979 53.1706Z" fill="white"/>
<path d="M47.1331 53.1706C46.9889 53.1706 46.8413 53.1379 46.703 53.0701C46.2213 52.8328 46.0232 52.2507 46.2611 51.7702L64.7365 14.4376C64.9427 14.0215 64.9205 13.5551 64.6743 13.1611C64.4282 12.7672 64.0204 12.5404 63.5539 12.5404H44.5653C44.0273 12.5404 43.5913 12.1056 43.5913 11.569C43.5913 11.0325 44.0273 10.5976 44.5653 10.5976H63.5527C64.6896 10.5976 65.7256 11.1728 66.3257 12.1348C66.9257 13.098 66.9832 14.2798 66.4804 15.2956L48.0051 52.6282C47.8363 52.9719 47.4917 53.1706 47.1331 53.1706Z" fill="white"/>
<path d="M43.1671 53.1706C43.0229 53.1706 42.8752 53.1379 42.737 53.0701C42.2553 52.8328 42.0572 52.2507 42.2951 51.7702L60.7704 14.4376C60.9766 14.0215 60.9544 13.5562 60.7083 13.1611C60.4621 12.766 60.0543 12.5404 59.5878 12.5404H44.5653C44.0273 12.5404 43.5913 12.1056 43.5913 11.569C43.5913 11.0325 44.0273 10.5976 44.5653 10.5976H59.5878C60.7247 10.5976 61.7607 11.1728 62.3608 12.1348C62.9608 13.098 63.0182 14.2798 62.5155 15.2956L44.0402 52.6282C43.8714 52.9719 43.5257 53.1706 43.1671 53.1706Z" fill="white"/>
<path d="M39.2011 53.1706C39.0569 53.1706 38.9092 53.1379 38.7709 53.0701C38.2893 52.8328 38.0912 52.2507 38.3291 51.7702L56.8044 14.4376C57.0107 14.0215 56.9884 13.5562 56.7423 13.1611C56.4962 12.766 56.0883 12.5404 55.6219 12.5404H44.5653C44.0273 12.5404 43.5914 12.1056 43.5914 11.569C43.5914 11.0325 44.0273 10.5976 44.5653 10.5976H55.6219C56.7587 10.5976 57.7947 11.1728 58.3948 12.1348C58.9949 13.098 59.0523 14.2798 58.5495 15.2956L40.0742 52.6282C39.9054 52.9719 39.5609 53.1706 39.2011 53.1706Z" fill="white"/>
<path d="M35.2362 53.1706C35.092 53.1706 34.9444 53.1379 34.8061 53.0701C34.3244 52.8328 34.1263 52.2507 34.3642 51.7702L52.8396 14.4376C53.0458 14.0215 53.0236 13.5551 52.7774 13.1611C52.5313 12.7672 52.1235 12.5404 51.657 12.5404H44.5653C44.0273 12.5404 43.5913 12.1056 43.5913 11.569C43.5913 11.0325 44.0273 10.5976 44.5653 10.5976H51.657C52.7939 10.5976 53.8299 11.1728 54.43 12.1348C55.03 13.098 55.0874 14.2798 54.5847 15.2956L36.1093 52.6282C35.9394 52.9719 35.5948 53.1706 35.2362 53.1706Z" fill="white"/>
<path d="M63.0453 44.3533L79.2364 10.5579H88.7365L72.931 44.0248C72.5103 45.0628 72.7271 45.6099 73.7139 45.6099C74.2073 45.6099 74.6902 45.5012 75.0629 45.3913L74.0819 52.2775C72.4681 52.8784 70.3409 53.2618 68.0403 53.2618C62.5601 53.2606 60.7212 50.0916 63.0453 44.3533Z" fill="white"/>
<path d="M111.558 37.7406C107.75 47.14 99.7369 53.2618 90.6411 53.2618C81.6003 53.2618 78.2918 47.6333 82.3211 37.6868C86.1289 28.2873 94.1418 22.1656 103.238 22.1656C112.277 22.1656 115.586 27.794 111.558 37.7406ZM92.3475 37.6856C89.8676 43.8062 90.3739 46.2107 93.496 46.2107C96.6194 46.2107 99.1392 43.6426 101.53 37.7394C103.988 31.6737 103.504 29.2143 100.38 29.2143C97.2582 29.2154 94.7384 31.7836 92.3475 37.6856Z" fill="white"/>
<path d="M144.086 25.8816L137.674 31.565C136.496 30.1436 135.042 29.5427 133.179 29.5427C129.727 29.5427 126.869 31.7287 124.367 37.9042C121.866 44.0797 123.394 45.7198 126.517 45.7198C128.434 45.7198 130.07 45.064 132.629 43.7524L134.413 49.7643C130.897 51.9502 127.133 53.2618 122.969 53.2618C113.654 53.2618 110.512 47.0863 114.21 37.9591C117.951 28.7233 126.306 22.1656 135.292 22.1656C139.62 22.1656 142.321 23.4771 144.086 25.8816Z" fill="white"/>
<path d="M145.887 52.2775H136.133L152.896 10.5579L162.734 10.6888L145.887 52.2775ZM162.587 35.9369L164.845 52.2775H153.996L152.547 36.374L166.287 23.1486H176.041L162.587 35.9369Z" fill="white"/>
<path d="M199.723 25.8267L194.047 31.1828C192.409 29.8163 190.276 28.9969 187.865 28.9969C185.782 28.9969 184.563 29.7076 184.143 30.7456C183.634 32.0022 183.96 32.5493 188.665 34.1881C193.645 35.8282 195.795 38.2327 193.669 43.4789C191.233 49.4908 184.008 53.2618 176.336 53.2618C171.24 53.2618 167.456 51.5131 165.637 48.835L172.397 43.6437C173.87 45.2838 176.068 46.4854 178.808 46.4854C181.11 46.4854 182.789 45.7198 183.409 44.1896C184.096 42.4958 183.483 42.1124 178.952 40.5822C174.027 38.9422 172.363 35.8819 174.201 31.3464C176.282 26.2089 182.413 22.1656 190.248 22.1656C194.521 22.1656 197.945 23.5858 199.723 25.8267Z" fill="white"/>
</svg>
