<svg width="116" height="19" viewBox="0 0 116 19" fill="none" xmlns="http://www.w3.org/2000/svg">
<path d="M7.80331 1.008H10.8753L12.8193 6.648L14.7873 1.008H17.8353L14.9073 8.76L17.0673 14.184L21.8913 0.959999H25.4913L18.6753 18H15.8193L12.8193 10.848L9.84331 18H6.98731L0.195312 0.959999H3.74731L8.59531 14.184L10.7073 8.76L7.80331 1.008ZM31.0694 18.24C30.0614 18.24 29.1494 18.072 28.3334 17.736C27.5174 17.384 26.8214 16.912 26.2454 16.32C25.6694 15.712 25.2214 15.024 24.9014 14.256C24.5974 13.472 24.4454 12.648 24.4454 11.784C24.4454 10.584 24.7094 9.488 25.2374 8.496C25.7814 7.504 26.5494 6.712 27.5414 6.12C28.5494 5.512 29.7334 5.208 31.0934 5.208C32.4694 5.208 33.6454 5.512 34.6214 6.12C35.5974 6.712 36.3414 7.504 36.8534 8.496C37.3814 9.472 37.6454 10.528 37.6454 11.664C37.6454 11.856 37.6374 12.056 37.6214 12.264C37.6054 12.456 37.5894 12.616 37.5734 12.744H27.8534C27.9174 13.384 28.1014 13.944 28.4054 14.424C28.7254 14.904 29.1254 15.272 29.6054 15.528C30.1014 15.768 30.6294 15.888 31.1894 15.888C31.8294 15.888 32.4294 15.736 32.9894 15.432C33.5654 15.112 33.9574 14.696 34.1654 14.184L36.9254 14.952C36.6214 15.592 36.1814 16.16 35.6054 16.656C35.0454 17.152 34.3814 17.544 33.6134 17.832C32.8454 18.104 31.9974 18.24 31.0694 18.24ZM27.7814 10.704H34.3574C34.2934 10.064 34.1094 9.512 33.8054 9.048C33.5174 8.568 33.1334 8.2 32.6534 7.944C32.1734 7.672 31.6374 7.536 31.0454 7.536C30.4694 7.536 29.9414 7.672 29.4614 7.944C28.9974 8.2 28.6134 8.568 28.3094 9.048C28.0214 9.512 27.8454 10.064 27.7814 10.704ZM39.5806 0.48H42.7966V13.968C42.7966 14.544 42.8926 14.936 43.0846 15.144C43.2766 15.336 43.5406 15.432 43.8766 15.432C44.1326 15.432 44.3966 15.4 44.6686 15.336C44.9406 15.272 45.1806 15.192 45.3886 15.096L45.8206 17.544C45.3886 17.752 44.8846 17.912 44.3086 18.024C43.7326 18.136 43.2126 18.192 42.7486 18.192C41.7406 18.192 40.9566 17.928 40.3966 17.4C39.8526 16.856 39.5806 16.088 39.5806 15.096V0.48ZM53.0778 18.24C52.0538 18.24 51.1338 18.072 50.3178 17.736C49.5018 17.384 48.8058 16.904 48.2298 16.296C47.6538 15.672 47.2058 14.968 46.8858 14.184C46.5818 13.4 46.4298 12.576 46.4298 11.712C46.4298 10.528 46.6938 9.448 47.2218 8.472C47.7658 7.48 48.5338 6.688 49.5258 6.096C50.5178 5.504 51.6938 5.208 53.0538 5.208C54.4138 5.208 55.5818 5.504 56.5578 6.096C57.5338 6.688 58.2618 7.464 58.7418 8.424L55.5978 9.384C55.3258 8.92 54.9658 8.568 54.5178 8.328C54.0698 8.072 53.5738 7.944 53.0298 7.944C52.4218 7.944 51.8618 8.104 51.3498 8.424C50.8538 8.728 50.4618 9.168 50.1738 9.744C49.8858 10.304 49.7418 10.96 49.7418 11.712C49.7418 12.448 49.8858 13.104 50.1738 13.68C50.4778 14.24 50.8778 14.688 51.3738 15.024C51.8698 15.344 52.4218 15.504 53.0298 15.504C53.4138 15.504 53.7738 15.44 54.1098 15.312C54.4618 15.184 54.7738 15.008 55.0458 14.784C55.3178 14.56 55.5178 14.304 55.6458 14.016L58.7898 14.976C58.5018 15.6 58.0778 16.16 57.5178 16.656C56.9738 17.152 56.3258 17.544 55.5738 17.832C54.8378 18.104 54.0058 18.24 53.0778 18.24ZM66.4595 18.24C65.4355 18.24 64.5155 18.072 63.6995 17.736C62.8835 17.384 62.1875 16.904 61.6115 16.296C61.0515 15.688 60.6195 14.992 60.3155 14.208C60.0115 13.424 59.8595 12.6 59.8595 11.736C59.8595 10.856 60.0115 10.024 60.3155 9.24C60.6195 8.456 61.0515 7.76 61.6115 7.152C62.1875 6.544 62.8835 6.072 63.6995 5.736C64.5155 5.384 65.4355 5.208 66.4595 5.208C67.4835 5.208 68.3955 5.384 69.1955 5.736C70.0115 6.072 70.7075 6.544 71.2835 7.152C71.8595 7.76 72.2915 8.456 72.5795 9.24C72.8835 10.024 73.0355 10.856 73.0355 11.736C73.0355 12.6 72.8835 13.424 72.5795 14.208C72.2915 14.992 71.8595 15.688 71.2835 16.296C70.7235 16.904 70.0355 17.384 69.2195 17.736C68.4035 18.072 67.4835 18.24 66.4595 18.24ZM63.1715 11.736C63.1715 12.472 63.3155 13.128 63.6035 13.704C63.8915 14.264 64.2835 14.704 64.7795 15.024C65.2755 15.344 65.8355 15.504 66.4595 15.504C67.0675 15.504 67.6195 15.344 68.1155 15.024C68.6115 14.688 69.0035 14.24 69.2915 13.68C69.5955 13.104 69.7475 12.448 69.7475 11.712C69.7475 10.992 69.5955 10.344 69.2915 9.768C69.0035 9.192 68.6115 8.744 68.1155 8.424C67.6195 8.104 67.0675 7.944 66.4595 7.944C65.8355 7.944 65.2755 8.112 64.7795 8.448C64.2835 8.768 63.8915 9.216 63.6035 9.792C63.3155 10.352 63.1715 11 63.1715 11.736ZM94.7422 18H91.5262V10.944C91.5262 9.952 91.3502 9.224 90.9982 8.76C90.6622 8.28 90.1902 8.04 89.5822 8.04C88.9582 8.04 88.3582 8.288 87.7822 8.784C87.2222 9.264 86.8222 9.896 86.5822 10.68V18H83.3662V10.944C83.3662 9.936 83.1902 9.2 82.8382 8.736C82.5022 8.272 82.0302 8.04 81.4222 8.04C80.7982 8.04 80.1982 8.28 79.6222 8.76C79.0622 9.24 78.6622 9.872 78.4222 10.656V18H75.2062V5.424H78.1102V7.752C78.5902 6.936 79.2302 6.312 80.0302 5.88C80.8302 5.432 81.7502 5.208 82.7902 5.208C83.8302 5.208 84.6382 5.464 85.2142 5.976C85.8062 6.488 86.1822 7.12 86.3422 7.872C86.8542 7.008 87.5022 6.352 88.2862 5.904C89.0862 5.44 89.9822 5.208 90.9742 5.208C91.7582 5.208 92.3902 5.352 92.8702 5.64C93.3662 5.912 93.7502 6.288 94.0222 6.768C94.2942 7.232 94.4782 7.76 94.5742 8.352C94.6862 8.944 94.7422 9.544 94.7422 10.152V18ZM103.374 18.24C102.366 18.24 101.454 18.072 100.638 17.736C99.8221 17.384 99.1261 16.912 98.5501 16.32C97.9741 15.712 97.5261 15.024 97.2061 14.256C96.9021 13.472 96.7501 12.648 96.7501 11.784C96.7501 10.584 97.0141 9.488 97.5421 8.496C98.0861 7.504 98.8541 6.712 99.8461 6.12C100.854 5.512 102.038 5.208 103.398 5.208C104.774 5.208 105.95 5.512 106.926 6.12C107.902 6.712 108.646 7.504 109.158 8.496C109.686 9.472 109.95 10.528 109.95 11.664C109.95 11.856 109.942 12.056 109.926 12.264C109.91 12.456 109.894 12.616 109.878 12.744H100.158C100.222 13.384 100.406 13.944 100.71 14.424C101.03 14.904 101.43 15.272 101.91 15.528C102.406 15.768 102.934 15.888 103.494 15.888C104.134 15.888 104.734 15.736 105.294 15.432C105.87 15.112 106.262 14.696 106.47 14.184L109.23 14.952C108.926 15.592 108.486 16.16 107.91 16.656C107.35 17.152 106.686 17.544 105.918 17.832C105.15 18.104 104.302 18.24 103.374 18.24ZM100.086 10.704H106.662C106.598 10.064 106.414 9.512 106.11 9.048C105.822 8.568 105.438 8.2 104.958 7.944C104.478 7.672 103.942 7.536 103.35 7.536C102.774 7.536 102.246 7.672 101.766 7.944C101.302 8.2 100.918 8.568 100.614 9.048C100.326 9.512 100.15 10.064 100.086 10.704ZM112.533 11.592V0.792H115.749V11.592H112.533ZM112.533 18V14.376H115.749V18H112.533Z" fill="white"/>
</svg>
